<svg xmlns="http://www.w3.org/2000/svg" xmlns:xlink="http://www.w3.org/1999/xlink" width="512" zoomAndPan="magnify" viewBox="0 0 384 383.999986" height="512" preserveAspectRatio="xMidYMid meet" version="1.0"><defs><clipPath id="23c8c56279"><path d="M 17.960938 239 L 121 239 L 121 342.441406 L 17.960938 342.441406 Z M 17.960938 239 " clip-rule="nonzero"/></clipPath><clipPath id="076c86d825"><path d="M 91 41.691406 L 319 41.691406 L 319 269 L 91 269 Z M 91 41.691406 " clip-rule="nonzero"/></clipPath><clipPath id="c4435333c4"><path d="M 238 176 L 365.960938 176 L 365.960938 282 L 238 282 Z M 238 176 " clip-rule="nonzero"/></clipPath></defs><g clip-path="url(#23c8c56279)"><path fill="#6fae3d" d="M 49.867188 342.222656 C 45.742188 342.222656 41.859375 340.613281 38.941406 337.695312 L 22.480469 321.234375 C 19.5625 318.316406 17.957031 314.433594 17.957031 310.308594 C 17.957031 306.179688 19.5625 302.296875 22.480469 299.378906 L 77.542969 244.320312 C 83.566406 238.292969 93.371094 238.292969 99.398438 244.320312 L 115.859375 260.777344 C 121.882812 266.804688 121.882812 276.609375 115.859375 282.636719 L 60.796875 337.695312 C 57.878906 340.613281 53.996094 342.222656 49.871094 342.222656 Z M 35.820312 310.308594 L 49.871094 324.355469 L 102.519531 271.707031 L 88.46875 257.660156 Z M 35.820312 310.308594 " fill-opacity="1" fill-rule="nonzero"/></g><path fill="#6fae3d" d="M 162.578125 223.8125 L 145.421875 223.8125 L 145.421875 200.140625 C 145.421875 190.90625 149.015625 182.226562 155.542969 175.699219 C 162.070312 169.171875 170.75 165.578125 179.980469 165.578125 L 229.769531 165.578125 C 239 165.578125 247.679688 169.171875 254.207031 175.699219 L 242.074219 187.832031 C 238.789062 184.546875 234.417969 182.734375 229.769531 182.734375 L 179.980469 182.734375 C 170.386719 182.734375 162.578125 190.542969 162.578125 200.140625 Z M 162.578125 223.8125 " fill-opacity="1" fill-rule="nonzero"/><path fill="#6fae3d" d="M 204.875 161.507812 C 199.257812 161.507812 193.800781 160.40625 188.660156 158.230469 C 183.699219 156.132812 179.246094 153.128906 175.425781 149.308594 C 171.601562 145.484375 168.601562 141.035156 166.503906 136.070312 C 164.328125 130.933594 163.226562 125.476562 163.226562 119.859375 C 163.226562 114.238281 164.328125 108.785156 166.503906 103.644531 C 168.601562 98.683594 171.605469 94.230469 175.425781 90.40625 C 179.246094 86.585938 183.699219 83.582031 188.660156 81.484375 C 193.800781 79.308594 199.257812 78.207031 204.875 78.207031 C 210.496094 78.207031 215.949219 79.308594 221.089844 81.484375 C 226.050781 83.582031 230.503906 86.585938 234.328125 90.40625 C 238.148438 94.230469 241.152344 98.683594 243.25 103.644531 C 245.421875 108.785156 246.523438 114.238281 246.523438 119.859375 C 246.523438 125.476562 245.421875 130.933594 243.25 136.070312 C 241.152344 141.03125 238.148438 145.484375 234.328125 149.308594 C 230.503906 153.128906 226.050781 156.132812 221.089844 158.230469 C 215.949219 160.40625 210.496094 161.507812 204.875 161.507812 Z M 204.875 95.367188 C 191.371094 95.367188 180.386719 106.355469 180.386719 119.859375 C 180.386719 133.363281 191.371094 144.347656 204.875 144.347656 C 218.378906 144.347656 229.367188 133.363281 229.367188 119.859375 C 229.367188 106.355469 218.378906 95.367188 204.875 95.367188 Z M 204.875 95.367188 " fill-opacity="1" fill-rule="nonzero"/><g clip-path="url(#076c86d825)"><path fill="#6fae3d" d="M 204.890625 268.816406 C 199.476562 268.816406 194.0625 268.429688 188.714844 267.664062 C 180.859375 266.539062 173.109375 264.589844 165.679688 261.863281 C 158.113281 259.082031 150.828125 255.480469 144.027344 251.15625 C 137.042969 246.714844 130.511719 241.46875 124.609375 235.566406 C 113.777344 224.734375 105.386719 212.097656 99.671875 198.011719 C 94.15625 184.410156 91.359375 170.039062 91.359375 155.300781 C 91.359375 140.558594 94.15625 126.1875 99.671875 112.585938 C 105.386719 98.5 113.777344 85.863281 124.609375 75.03125 C 135.441406 64.199219 148.078125 55.808594 162.164062 50.097656 C 175.765625 44.578125 190.136719 41.78125 204.878906 41.78125 C 219.617188 41.78125 233.988281 44.578125 247.589844 50.097656 C 261.675781 55.808594 274.3125 64.199219 285.144531 75.03125 C 291.304688 81.1875 296.738281 88.027344 301.304688 95.355469 C 305.742188 102.484375 309.390625 110.125 312.140625 118.070312 C 314.839844 125.867188 316.691406 133.988281 317.640625 142.207031 C 318.582031 150.371094 318.640625 158.65625 317.808594 166.835938 C 317.492188 169.960938 317.039062 173.113281 316.460938 176.199219 L 299.59375 173.054688 C 300.082031 170.433594 300.46875 167.757812 300.738281 165.101562 C 303.679688 136.132812 293.574219 107.726562 273.011719 87.164062 C 235.441406 49.59375 174.3125 49.59375 136.742188 87.164062 C 99.171875 124.734375 99.171875 185.863281 136.742188 223.433594 C 156.355469 243.046875 183.488281 253.253906 211.1875 251.449219 L 212.304688 268.570312 C 209.839844 268.734375 207.363281 268.8125 204.890625 268.8125 Z M 204.890625 268.816406 " fill-opacity="1" fill-rule="nonzero"/></g><path fill="#6fae3d" d="M 95.492188 252.546875 L 113.226562 234.816406 L 125.359375 246.949219 L 107.625 264.683594 Z M 95.492188 252.546875 " fill-opacity="1" fill-rule="nonzero"/><path fill="#6fae3d" d="M 280.546875 306.878906 C 271.996094 306.878906 263.699219 305.203125 255.882812 301.898438 C 248.335938 298.707031 241.5625 294.136719 235.746094 288.324219 C 229.929688 282.507812 225.363281 275.730469 222.171875 268.1875 C 218.863281 260.371094 217.1875 252.070312 217.1875 243.523438 C 217.1875 234.972656 218.863281 226.675781 222.171875 218.859375 C 225.363281 211.3125 229.929688 204.539062 235.746094 198.722656 C 241.5625 192.90625 248.335938 188.339844 255.882812 185.148438 C 263.699219 181.839844 271.996094 180.164062 280.546875 180.164062 C 291.308594 180.164062 301.941406 182.914062 311.296875 188.117188 L 302.957031 203.113281 C 296.148438 199.328125 288.398438 197.324219 280.546875 197.324219 C 255.070312 197.324219 234.347656 218.050781 234.347656 243.523438 C 234.347656 268.996094 255.070312 289.722656 280.546875 289.722656 C 302.90625 289.722656 322.019531 273.785156 326 251.828125 L 342.886719 254.886719 C 340.273438 269.308594 332.632812 282.476562 321.375 291.972656 C 315.78125 296.6875 309.484375 300.371094 302.65625 302.914062 C 295.585938 305.546875 288.148438 306.882812 280.546875 306.882812 Z M 280.546875 306.878906 " fill-opacity="1" fill-rule="nonzero"/><g clip-path="url(#c4435333c4)"><path fill="#6fae3d" d="M 288.878906 281.921875 L 238.453125 231.492188 L 266.613281 203.328125 L 288.878906 225.59375 L 337.859375 176.613281 L 366.023438 204.773438 Z M 262.71875 231.492188 L 288.878906 257.652344 L 341.753906 204.773438 L 337.859375 200.878906 L 288.878906 249.859375 L 266.613281 227.59375 Z M 262.71875 231.492188 " fill-opacity="1" fill-rule="nonzero"/></g></svg>