<svg xmlns="http://www.w3.org/2000/svg" xmlns:xlink="http://www.w3.org/1999/xlink" width="512" zoomAndPan="magnify" viewBox="0 0 384 383.999986" height="512" preserveAspectRatio="xMidYMid meet" version="1.0"><defs><clipPath id="4d501e1a20"><path d="M 11.609375 11.609375 L 372.359375 11.609375 L 372.359375 372.359375 L 11.609375 372.359375 Z M 11.609375 11.609375 " clip-rule="nonzero"/></clipPath><clipPath id="e2002a5d31"><path d="M 154 188 L 231 188 L 231 276 L 154 276 Z M 154 188 " clip-rule="nonzero"/></clipPath><clipPath id="e3ead0c622"><path d="M 11.621094 191.984375 C 11.621094 186.078125 11.914062 180.183594 12.492188 174.304688 C 13.070312 168.425781 13.9375 162.589844 15.089844 156.796875 C 16.242188 151.003906 17.675781 145.28125 19.390625 139.628906 C 21.105469 133.976562 23.089844 128.421875 25.351562 122.964844 C 27.613281 117.503906 30.136719 112.171875 32.917969 106.960938 C 35.703125 101.753906 38.738281 96.691406 42.019531 91.78125 C 45.300781 86.871094 48.816406 82.128906 52.5625 77.5625 C 56.308594 73 60.273438 68.625 64.449219 64.449219 C 68.625 60.273438 73 56.308594 77.5625 52.5625 C 82.128906 48.816406 86.871094 45.300781 91.78125 42.019531 C 96.691406 38.738281 101.753906 35.703125 106.960938 32.917969 C 112.171875 30.136719 117.503906 27.613281 122.964844 25.351562 C 128.421875 23.089844 133.976562 21.105469 139.628906 19.390625 C 145.28125 17.675781 151.003906 16.242188 156.796875 15.089844 C 162.589844 13.9375 168.425781 13.070312 174.304688 12.492188 C 180.183594 11.914062 186.078125 11.621094 191.984375 11.621094 C 197.890625 11.621094 203.785156 11.914062 209.664062 12.492188 C 215.542969 13.070312 221.378906 13.9375 227.171875 15.089844 C 232.964844 16.242188 238.6875 17.675781 244.339844 19.390625 C 249.992188 21.105469 255.546875 23.089844 261.003906 25.351562 C 266.464844 27.613281 271.796875 30.136719 277.007812 32.917969 C 282.214844 35.703125 287.277344 38.738281 292.1875 42.019531 C 297.097656 45.300781 301.839844 48.816406 306.402344 52.5625 C 310.96875 56.308594 315.34375 60.273438 319.519531 64.449219 C 323.695312 68.625 327.65625 73 331.40625 77.5625 C 335.152344 82.128906 338.667969 86.871094 341.949219 91.78125 C 345.230469 96.691406 348.265625 101.753906 351.046875 106.960938 C 353.832031 112.171875 356.355469 117.503906 358.617188 122.964844 C 360.875 128.421875 362.863281 133.976562 364.578125 139.628906 C 366.292969 145.28125 367.726562 151.003906 368.878906 156.796875 C 370.03125 162.589844 370.898438 168.425781 371.476562 174.304688 C 372.054688 180.183594 372.34375 186.078125 372.34375 191.984375 C 372.34375 197.890625 372.054688 203.785156 371.476562 209.664062 C 370.898438 215.542969 370.03125 221.378906 368.878906 227.171875 C 367.726562 232.964844 366.292969 238.6875 364.578125 244.339844 C 362.863281 249.992188 360.875 255.546875 358.617188 261.003906 C 356.355469 266.464844 353.832031 271.796875 351.046875 277.007812 C 348.265625 282.214844 345.230469 287.277344 341.949219 292.1875 C 338.667969 297.097656 335.152344 301.839844 331.40625 306.402344 C 327.65625 310.96875 323.695312 315.34375 319.519531 319.519531 C 315.34375 323.695312 310.96875 327.65625 306.402344 331.40625 C 301.839844 335.152344 297.097656 338.667969 292.1875 341.949219 C 287.277344 345.230469 282.214844 348.265625 277.007812 351.046875 C 271.796875 353.832031 266.464844 356.355469 261.003906 358.617188 C 255.546875 360.875 249.992188 362.863281 244.339844 364.578125 C 238.6875 366.292969 232.964844 367.726562 227.171875 368.878906 C 221.378906 370.03125 215.542969 370.898438 209.664062 371.476562 C 203.785156 372.054688 197.890625 372.34375 191.984375 372.34375 C 186.078125 372.34375 180.183594 372.054688 174.304688 371.476562 C 168.425781 370.898438 162.589844 370.03125 156.796875 368.878906 C 151.003906 367.726562 145.28125 366.292969 139.628906 364.578125 C 133.976562 362.863281 128.421875 360.875 122.964844 358.617188 C 117.503906 356.355469 112.171875 353.832031 106.960938 351.046875 C 101.753906 348.265625 96.691406 345.230469 91.78125 341.949219 C 86.871094 338.667969 82.128906 335.152344 77.5625 331.40625 C 73 327.65625 68.625 323.695312 64.449219 319.519531 C 60.273438 315.34375 56.308594 310.96875 52.5625 306.402344 C 48.816406 301.839844 45.300781 297.097656 42.019531 292.1875 C 38.738281 287.277344 35.703125 282.214844 32.917969 277.007812 C 30.136719 271.796875 27.613281 266.464844 25.351562 261.003906 C 23.089844 255.546875 21.105469 249.992188 19.390625 244.339844 C 17.675781 238.6875 16.242188 232.964844 15.089844 227.171875 C 13.9375 221.378906 13.070312 215.542969 12.492188 209.664062 C 11.914062 203.785156 11.621094 197.890625 11.621094 191.984375 Z M 11.621094 191.984375 " clip-rule="nonzero"/></clipPath><clipPath id="f45a4f3237"><path d="M 158 188 L 228 188 L 228 232 L 158 232 Z M 158 188 " clip-rule="nonzero"/></clipPath><clipPath id="fd2fc7e688"><path d="M 11.621094 191.984375 C 11.621094 186.078125 11.914062 180.183594 12.492188 174.304688 C 13.070312 168.425781 13.9375 162.589844 15.089844 156.796875 C 16.242188 151.003906 17.675781 145.28125 19.390625 139.628906 C 21.105469 133.976562 23.089844 128.421875 25.351562 122.964844 C 27.613281 117.503906 30.136719 112.171875 32.917969 106.960938 C 35.703125 101.753906 38.738281 96.691406 42.019531 91.78125 C 45.300781 86.871094 48.816406 82.128906 52.5625 77.5625 C 56.308594 73 60.273438 68.625 64.449219 64.449219 C 68.625 60.273438 73 56.308594 77.5625 52.5625 C 82.128906 48.816406 86.871094 45.300781 91.78125 42.019531 C 96.691406 38.738281 101.753906 35.703125 106.960938 32.917969 C 112.171875 30.136719 117.503906 27.613281 122.964844 25.351562 C 128.421875 23.089844 133.976562 21.105469 139.628906 19.390625 C 145.28125 17.675781 151.003906 16.242188 156.796875 15.089844 C 162.589844 13.9375 168.425781 13.070312 174.304688 12.492188 C 180.183594 11.914062 186.078125 11.621094 191.984375 11.621094 C 197.890625 11.621094 203.785156 11.914062 209.664062 12.492188 C 215.542969 13.070312 221.378906 13.9375 227.171875 15.089844 C 232.964844 16.242188 238.6875 17.675781 244.339844 19.390625 C 249.992188 21.105469 255.546875 23.089844 261.003906 25.351562 C 266.464844 27.613281 271.796875 30.136719 277.007812 32.917969 C 282.214844 35.703125 287.277344 38.738281 292.1875 42.019531 C 297.097656 45.300781 301.839844 48.816406 306.402344 52.5625 C 310.96875 56.308594 315.34375 60.273438 319.519531 64.449219 C 323.695312 68.625 327.65625 73 331.40625 77.5625 C 335.152344 82.128906 338.667969 86.871094 341.949219 91.78125 C 345.230469 96.691406 348.265625 101.753906 351.046875 106.960938 C 353.832031 112.171875 356.355469 117.503906 358.617188 122.964844 C 360.875 128.421875 362.863281 133.976562 364.578125 139.628906 C 366.292969 145.28125 367.726562 151.003906 368.878906 156.796875 C 370.03125 162.589844 370.898438 168.425781 371.476562 174.304688 C 372.054688 180.183594 372.34375 186.078125 372.34375 191.984375 C 372.34375 197.890625 372.054688 203.785156 371.476562 209.664062 C 370.898438 215.542969 370.03125 221.378906 368.878906 227.171875 C 367.726562 232.964844 366.292969 238.6875 364.578125 244.339844 C 362.863281 249.992188 360.875 255.546875 358.617188 261.003906 C 356.355469 266.464844 353.832031 271.796875 351.046875 277.007812 C 348.265625 282.214844 345.230469 287.277344 341.949219 292.1875 C 338.667969 297.097656 335.152344 301.839844 331.40625 306.402344 C 327.65625 310.96875 323.695312 315.34375 319.519531 319.519531 C 315.34375 323.695312 310.96875 327.65625 306.402344 331.40625 C 301.839844 335.152344 297.097656 338.667969 292.1875 341.949219 C 287.277344 345.230469 282.214844 348.265625 277.007812 351.046875 C 271.796875 353.832031 266.464844 356.355469 261.003906 358.617188 C 255.546875 360.875 249.992188 362.863281 244.339844 364.578125 C 238.6875 366.292969 232.964844 367.726562 227.171875 368.878906 C 221.378906 370.03125 215.542969 370.898438 209.664062 371.476562 C 203.785156 372.054688 197.890625 372.34375 191.984375 372.34375 C 186.078125 372.34375 180.183594 372.054688 174.304688 371.476562 C 168.425781 370.898438 162.589844 370.03125 156.796875 368.878906 C 151.003906 367.726562 145.28125 366.292969 139.628906 364.578125 C 133.976562 362.863281 128.421875 360.875 122.964844 358.617188 C 117.503906 356.355469 112.171875 353.832031 106.960938 351.046875 C 101.753906 348.265625 96.691406 345.230469 91.78125 341.949219 C 86.871094 338.667969 82.128906 335.152344 77.5625 331.40625 C 73 327.65625 68.625 323.695312 64.449219 319.519531 C 60.273438 315.34375 56.308594 310.96875 52.5625 306.402344 C 48.816406 301.839844 45.300781 297.097656 42.019531 292.1875 C 38.738281 287.277344 35.703125 282.214844 32.917969 277.007812 C 30.136719 271.796875 27.613281 266.464844 25.351562 261.003906 C 23.089844 255.546875 21.105469 249.992188 19.390625 244.339844 C 17.675781 238.6875 16.242188 232.964844 15.089844 227.171875 C 13.9375 221.378906 13.070312 215.542969 12.492188 209.664062 C 11.914062 203.785156 11.621094 197.890625 11.621094 191.984375 Z M 11.621094 191.984375 " clip-rule="nonzero"/></clipPath><clipPath id="829970c675"><path d="M 136 65 L 248 65 L 248 216 L 136 216 Z M 136 65 " clip-rule="nonzero"/></clipPath><clipPath id="f5aaeec0ea"><path d="M 11.621094 191.984375 C 11.621094 186.078125 11.914062 180.183594 12.492188 174.304688 C 13.070312 168.425781 13.9375 162.589844 15.089844 156.796875 C 16.242188 151.003906 17.675781 145.28125 19.390625 139.628906 C 21.105469 133.976562 23.089844 128.421875 25.351562 122.964844 C 27.613281 117.503906 30.136719 112.171875 32.917969 106.960938 C 35.703125 101.753906 38.738281 96.691406 42.019531 91.78125 C 45.300781 86.871094 48.816406 82.128906 52.5625 77.5625 C 56.308594 73 60.273438 68.625 64.449219 64.449219 C 68.625 60.273438 73 56.308594 77.5625 52.5625 C 82.128906 48.816406 86.871094 45.300781 91.78125 42.019531 C 96.691406 38.738281 101.753906 35.703125 106.960938 32.917969 C 112.171875 30.136719 117.503906 27.613281 122.964844 25.351562 C 128.421875 23.089844 133.976562 21.105469 139.628906 19.390625 C 145.28125 17.675781 151.003906 16.242188 156.796875 15.089844 C 162.589844 13.9375 168.425781 13.070312 174.304688 12.492188 C 180.183594 11.914062 186.078125 11.621094 191.984375 11.621094 C 197.890625 11.621094 203.785156 11.914062 209.664062 12.492188 C 215.542969 13.070312 221.378906 13.9375 227.171875 15.089844 C 232.964844 16.242188 238.6875 17.675781 244.339844 19.390625 C 249.992188 21.105469 255.546875 23.089844 261.003906 25.351562 C 266.464844 27.613281 271.796875 30.136719 277.007812 32.917969 C 282.214844 35.703125 287.277344 38.738281 292.1875 42.019531 C 297.097656 45.300781 301.839844 48.816406 306.402344 52.5625 C 310.96875 56.308594 315.34375 60.273438 319.519531 64.449219 C 323.695312 68.625 327.65625 73 331.40625 77.5625 C 335.152344 82.128906 338.667969 86.871094 341.949219 91.78125 C 345.230469 96.691406 348.265625 101.753906 351.046875 106.960938 C 353.832031 112.171875 356.355469 117.503906 358.617188 122.964844 C 360.875 128.421875 362.863281 133.976562 364.578125 139.628906 C 366.292969 145.28125 367.726562 151.003906 368.878906 156.796875 C 370.03125 162.589844 370.898438 168.425781 371.476562 174.304688 C 372.054688 180.183594 372.34375 186.078125 372.34375 191.984375 C 372.34375 197.890625 372.054688 203.785156 371.476562 209.664062 C 370.898438 215.542969 370.03125 221.378906 368.878906 227.171875 C 367.726562 232.964844 366.292969 238.6875 364.578125 244.339844 C 362.863281 249.992188 360.875 255.546875 358.617188 261.003906 C 356.355469 266.464844 353.832031 271.796875 351.046875 277.007812 C 348.265625 282.214844 345.230469 287.277344 341.949219 292.1875 C 338.667969 297.097656 335.152344 301.839844 331.40625 306.402344 C 327.65625 310.96875 323.695312 315.34375 319.519531 319.519531 C 315.34375 323.695312 310.96875 327.65625 306.402344 331.40625 C 301.839844 335.152344 297.097656 338.667969 292.1875 341.949219 C 287.277344 345.230469 282.214844 348.265625 277.007812 351.046875 C 271.796875 353.832031 266.464844 356.355469 261.003906 358.617188 C 255.546875 360.875 249.992188 362.863281 244.339844 364.578125 C 238.6875 366.292969 232.964844 367.726562 227.171875 368.878906 C 221.378906 370.03125 215.542969 370.898438 209.664062 371.476562 C 203.785156 372.054688 197.890625 372.34375 191.984375 372.34375 C 186.078125 372.34375 180.183594 372.054688 174.304688 371.476562 C 168.425781 370.898438 162.589844 370.03125 156.796875 368.878906 C 151.003906 367.726562 145.28125 366.292969 139.628906 364.578125 C 133.976562 362.863281 128.421875 360.875 122.964844 358.617188 C 117.503906 356.355469 112.171875 353.832031 106.960938 351.046875 C 101.753906 348.265625 96.691406 345.230469 91.78125 341.949219 C 86.871094 338.667969 82.128906 335.152344 77.5625 331.40625 C 73 327.65625 68.625 323.695312 64.449219 319.519531 C 60.273438 315.34375 56.308594 310.96875 52.5625 306.402344 C 48.816406 301.839844 45.300781 297.097656 42.019531 292.1875 C 38.738281 287.277344 35.703125 282.214844 32.917969 277.007812 C 30.136719 271.796875 27.613281 266.464844 25.351562 261.003906 C 23.089844 255.546875 21.105469 249.992188 19.390625 244.339844 C 17.675781 238.6875 16.242188 232.964844 15.089844 227.171875 C 13.9375 221.378906 13.070312 215.542969 12.492188 209.664062 C 11.914062 203.785156 11.621094 197.890625 11.621094 191.984375 Z M 11.621094 191.984375 " clip-rule="nonzero"/></clipPath><clipPath id="723d8459d6"><path d="M 244 193 L 245 193 L 245 194 L 244 194 Z M 244 193 " clip-rule="nonzero"/></clipPath><clipPath id="9a1432de21"><path d="M 11.621094 191.984375 C 11.621094 186.078125 11.914062 180.183594 12.492188 174.304688 C 13.070312 168.425781 13.9375 162.589844 15.089844 156.796875 C 16.242188 151.003906 17.675781 145.28125 19.390625 139.628906 C 21.105469 133.976562 23.089844 128.421875 25.351562 122.964844 C 27.613281 117.503906 30.136719 112.171875 32.917969 106.960938 C 35.703125 101.753906 38.738281 96.691406 42.019531 91.78125 C 45.300781 86.871094 48.816406 82.128906 52.5625 77.5625 C 56.308594 73 60.273438 68.625 64.449219 64.449219 C 68.625 60.273438 73 56.308594 77.5625 52.5625 C 82.128906 48.816406 86.871094 45.300781 91.78125 42.019531 C 96.691406 38.738281 101.753906 35.703125 106.960938 32.917969 C 112.171875 30.136719 117.503906 27.613281 122.964844 25.351562 C 128.421875 23.089844 133.976562 21.105469 139.628906 19.390625 C 145.28125 17.675781 151.003906 16.242188 156.796875 15.089844 C 162.589844 13.9375 168.425781 13.070312 174.304688 12.492188 C 180.183594 11.914062 186.078125 11.621094 191.984375 11.621094 C 197.890625 11.621094 203.785156 11.914062 209.664062 12.492188 C 215.542969 13.070312 221.378906 13.9375 227.171875 15.089844 C 232.964844 16.242188 238.6875 17.675781 244.339844 19.390625 C 249.992188 21.105469 255.546875 23.089844 261.003906 25.351562 C 266.464844 27.613281 271.796875 30.136719 277.007812 32.917969 C 282.214844 35.703125 287.277344 38.738281 292.1875 42.019531 C 297.097656 45.300781 301.839844 48.816406 306.402344 52.5625 C 310.96875 56.308594 315.34375 60.273438 319.519531 64.449219 C 323.695312 68.625 327.65625 73 331.40625 77.5625 C 335.152344 82.128906 338.667969 86.871094 341.949219 91.78125 C 345.230469 96.691406 348.265625 101.753906 351.046875 106.960938 C 353.832031 112.171875 356.355469 117.503906 358.617188 122.964844 C 360.875 128.421875 362.863281 133.976562 364.578125 139.628906 C 366.292969 145.28125 367.726562 151.003906 368.878906 156.796875 C 370.03125 162.589844 370.898438 168.425781 371.476562 174.304688 C 372.054688 180.183594 372.34375 186.078125 372.34375 191.984375 C 372.34375 197.890625 372.054688 203.785156 371.476562 209.664062 C 370.898438 215.542969 370.03125 221.378906 368.878906 227.171875 C 367.726562 232.964844 366.292969 238.6875 364.578125 244.339844 C 362.863281 249.992188 360.875 255.546875 358.617188 261.003906 C 356.355469 266.464844 353.832031 271.796875 351.046875 277.007812 C 348.265625 282.214844 345.230469 287.277344 341.949219 292.1875 C 338.667969 297.097656 335.152344 301.839844 331.40625 306.402344 C 327.65625 310.96875 323.695312 315.34375 319.519531 319.519531 C 315.34375 323.695312 310.96875 327.65625 306.402344 331.40625 C 301.839844 335.152344 297.097656 338.667969 292.1875 341.949219 C 287.277344 345.230469 282.214844 348.265625 277.007812 351.046875 C 271.796875 353.832031 266.464844 356.355469 261.003906 358.617188 C 255.546875 360.875 249.992188 362.863281 244.339844 364.578125 C 238.6875 366.292969 232.964844 367.726562 227.171875 368.878906 C 221.378906 370.03125 215.542969 370.898438 209.664062 371.476562 C 203.785156 372.054688 197.890625 372.34375 191.984375 372.34375 C 186.078125 372.34375 180.183594 372.054688 174.304688 371.476562 C 168.425781 370.898438 162.589844 370.03125 156.796875 368.878906 C 151.003906 367.726562 145.28125 366.292969 139.628906 364.578125 C 133.976562 362.863281 128.421875 360.875 122.964844 358.617188 C 117.503906 356.355469 112.171875 353.832031 106.960938 351.046875 C 101.753906 348.265625 96.691406 345.230469 91.78125 341.949219 C 86.871094 338.667969 82.128906 335.152344 77.5625 331.40625 C 73 327.65625 68.625 323.695312 64.449219 319.519531 C 60.273438 315.34375 56.308594 310.96875 52.5625 306.402344 C 48.816406 301.839844 45.300781 297.097656 42.019531 292.1875 C 38.738281 287.277344 35.703125 282.214844 32.917969 277.007812 C 30.136719 271.796875 27.613281 266.464844 25.351562 261.003906 C 23.089844 255.546875 21.105469 249.992188 19.390625 244.339844 C 17.675781 238.6875 16.242188 232.964844 15.089844 227.171875 C 13.9375 221.378906 13.070312 215.542969 12.492188 209.664062 C 11.914062 203.785156 11.621094 197.890625 11.621094 191.984375 Z M 11.621094 191.984375 " clip-rule="nonzero"/></clipPath><clipPath id="013eea25ce"><path d="M 95 76 L 96 76 L 96 77 L 95 77 Z M 95 76 " clip-rule="nonzero"/></clipPath><clipPath id="2b29b25cdc"><path d="M 11.621094 191.984375 C 11.621094 186.078125 11.914062 180.183594 12.492188 174.304688 C 13.070312 168.425781 13.9375 162.589844 15.089844 156.796875 C 16.242188 151.003906 17.675781 145.28125 19.390625 139.628906 C 21.105469 133.976562 23.089844 128.421875 25.351562 122.964844 C 27.613281 117.503906 30.136719 112.171875 32.917969 106.960938 C 35.703125 101.753906 38.738281 96.691406 42.019531 91.78125 C 45.300781 86.871094 48.816406 82.128906 52.5625 77.5625 C 56.308594 73 60.273438 68.625 64.449219 64.449219 C 68.625 60.273438 73 56.308594 77.5625 52.5625 C 82.128906 48.816406 86.871094 45.300781 91.78125 42.019531 C 96.691406 38.738281 101.753906 35.703125 106.960938 32.917969 C 112.171875 30.136719 117.503906 27.613281 122.964844 25.351562 C 128.421875 23.089844 133.976562 21.105469 139.628906 19.390625 C 145.28125 17.675781 151.003906 16.242188 156.796875 15.089844 C 162.589844 13.9375 168.425781 13.070312 174.304688 12.492188 C 180.183594 11.914062 186.078125 11.621094 191.984375 11.621094 C 197.890625 11.621094 203.785156 11.914062 209.664062 12.492188 C 215.542969 13.070312 221.378906 13.9375 227.171875 15.089844 C 232.964844 16.242188 238.6875 17.675781 244.339844 19.390625 C 249.992188 21.105469 255.546875 23.089844 261.003906 25.351562 C 266.464844 27.613281 271.796875 30.136719 277.007812 32.917969 C 282.214844 35.703125 287.277344 38.738281 292.1875 42.019531 C 297.097656 45.300781 301.839844 48.816406 306.402344 52.5625 C 310.96875 56.308594 315.34375 60.273438 319.519531 64.449219 C 323.695312 68.625 327.65625 73 331.40625 77.5625 C 335.152344 82.128906 338.667969 86.871094 341.949219 91.78125 C 345.230469 96.691406 348.265625 101.753906 351.046875 106.960938 C 353.832031 112.171875 356.355469 117.503906 358.617188 122.964844 C 360.875 128.421875 362.863281 133.976562 364.578125 139.628906 C 366.292969 145.28125 367.726562 151.003906 368.878906 156.796875 C 370.03125 162.589844 370.898438 168.425781 371.476562 174.304688 C 372.054688 180.183594 372.34375 186.078125 372.34375 191.984375 C 372.34375 197.890625 372.054688 203.785156 371.476562 209.664062 C 370.898438 215.542969 370.03125 221.378906 368.878906 227.171875 C 367.726562 232.964844 366.292969 238.6875 364.578125 244.339844 C 362.863281 249.992188 360.875 255.546875 358.617188 261.003906 C 356.355469 266.464844 353.832031 271.796875 351.046875 277.007812 C 348.265625 282.214844 345.230469 287.277344 341.949219 292.1875 C 338.667969 297.097656 335.152344 301.839844 331.40625 306.402344 C 327.65625 310.96875 323.695312 315.34375 319.519531 319.519531 C 315.34375 323.695312 310.96875 327.65625 306.402344 331.40625 C 301.839844 335.152344 297.097656 338.667969 292.1875 341.949219 C 287.277344 345.230469 282.214844 348.265625 277.007812 351.046875 C 271.796875 353.832031 266.464844 356.355469 261.003906 358.617188 C 255.546875 360.875 249.992188 362.863281 244.339844 364.578125 C 238.6875 366.292969 232.964844 367.726562 227.171875 368.878906 C 221.378906 370.03125 215.542969 370.898438 209.664062 371.476562 C 203.785156 372.054688 197.890625 372.34375 191.984375 372.34375 C 186.078125 372.34375 180.183594 372.054688 174.304688 371.476562 C 168.425781 370.898438 162.589844 370.03125 156.796875 368.878906 C 151.003906 367.726562 145.28125 366.292969 139.628906 364.578125 C 133.976562 362.863281 128.421875 360.875 122.964844 358.617188 C 117.503906 356.355469 112.171875 353.832031 106.960938 351.046875 C 101.753906 348.265625 96.691406 345.230469 91.78125 341.949219 C 86.871094 338.667969 82.128906 335.152344 77.5625 331.40625 C 73 327.65625 68.625 323.695312 64.449219 319.519531 C 60.273438 315.34375 56.308594 310.96875 52.5625 306.402344 C 48.816406 301.839844 45.300781 297.097656 42.019531 292.1875 C 38.738281 287.277344 35.703125 282.214844 32.917969 277.007812 C 30.136719 271.796875 27.613281 266.464844 25.351562 261.003906 C 23.089844 255.546875 21.105469 249.992188 19.390625 244.339844 C 17.675781 238.6875 16.242188 232.964844 15.089844 227.171875 C 13.9375 221.378906 13.070312 215.542969 12.492188 209.664062 C 11.914062 203.785156 11.621094 197.890625 11.621094 191.984375 Z M 11.621094 191.984375 " clip-rule="nonzero"/></clipPath><clipPath id="f7b616c4e8"><path d="M 127 42 L 268 42 L 268 136 L 127 136 Z M 127 42 " clip-rule="nonzero"/></clipPath><clipPath id="26962eab8c"><path d="M 11.621094 191.984375 C 11.621094 186.078125 11.914062 180.183594 12.492188 174.304688 C 13.070312 168.425781 13.9375 162.589844 15.089844 156.796875 C 16.242188 151.003906 17.675781 145.28125 19.390625 139.628906 C 21.105469 133.976562 23.089844 128.421875 25.351562 122.964844 C 27.613281 117.503906 30.136719 112.171875 32.917969 106.960938 C 35.703125 101.753906 38.738281 96.691406 42.019531 91.78125 C 45.300781 86.871094 48.816406 82.128906 52.5625 77.5625 C 56.308594 73 60.273438 68.625 64.449219 64.449219 C 68.625 60.273438 73 56.308594 77.5625 52.5625 C 82.128906 48.816406 86.871094 45.300781 91.78125 42.019531 C 96.691406 38.738281 101.753906 35.703125 106.960938 32.917969 C 112.171875 30.136719 117.503906 27.613281 122.964844 25.351562 C 128.421875 23.089844 133.976562 21.105469 139.628906 19.390625 C 145.28125 17.675781 151.003906 16.242188 156.796875 15.089844 C 162.589844 13.9375 168.425781 13.070312 174.304688 12.492188 C 180.183594 11.914062 186.078125 11.621094 191.984375 11.621094 C 197.890625 11.621094 203.785156 11.914062 209.664062 12.492188 C 215.542969 13.070312 221.378906 13.9375 227.171875 15.089844 C 232.964844 16.242188 238.6875 17.675781 244.339844 19.390625 C 249.992188 21.105469 255.546875 23.089844 261.003906 25.351562 C 266.464844 27.613281 271.796875 30.136719 277.007812 32.917969 C 282.214844 35.703125 287.277344 38.738281 292.1875 42.019531 C 297.097656 45.300781 301.839844 48.816406 306.402344 52.5625 C 310.96875 56.308594 315.34375 60.273438 319.519531 64.449219 C 323.695312 68.625 327.65625 73 331.40625 77.5625 C 335.152344 82.128906 338.667969 86.871094 341.949219 91.78125 C 345.230469 96.691406 348.265625 101.753906 351.046875 106.960938 C 353.832031 112.171875 356.355469 117.503906 358.617188 122.964844 C 360.875 128.421875 362.863281 133.976562 364.578125 139.628906 C 366.292969 145.28125 367.726562 151.003906 368.878906 156.796875 C 370.03125 162.589844 370.898438 168.425781 371.476562 174.304688 C 372.054688 180.183594 372.34375 186.078125 372.34375 191.984375 C 372.34375 197.890625 372.054688 203.785156 371.476562 209.664062 C 370.898438 215.542969 370.03125 221.378906 368.878906 227.171875 C 367.726562 232.964844 366.292969 238.6875 364.578125 244.339844 C 362.863281 249.992188 360.875 255.546875 358.617188 261.003906 C 356.355469 266.464844 353.832031 271.796875 351.046875 277.007812 C 348.265625 282.214844 345.230469 287.277344 341.949219 292.1875 C 338.667969 297.097656 335.152344 301.839844 331.40625 306.402344 C 327.65625 310.96875 323.695312 315.34375 319.519531 319.519531 C 315.34375 323.695312 310.96875 327.65625 306.402344 331.40625 C 301.839844 335.152344 297.097656 338.667969 292.1875 341.949219 C 287.277344 345.230469 282.214844 348.265625 277.007812 351.046875 C 271.796875 353.832031 266.464844 356.355469 261.003906 358.617188 C 255.546875 360.875 249.992188 362.863281 244.339844 364.578125 C 238.6875 366.292969 232.964844 367.726562 227.171875 368.878906 C 221.378906 370.03125 215.542969 370.898438 209.664062 371.476562 C 203.785156 372.054688 197.890625 372.34375 191.984375 372.34375 C 186.078125 372.34375 180.183594 372.054688 174.304688 371.476562 C 168.425781 370.898438 162.589844 370.03125 156.796875 368.878906 C 151.003906 367.726562 145.28125 366.292969 139.628906 364.578125 C 133.976562 362.863281 128.421875 360.875 122.964844 358.617188 C 117.503906 356.355469 112.171875 353.832031 106.960938 351.046875 C 101.753906 348.265625 96.691406 345.230469 91.78125 341.949219 C 86.871094 338.667969 82.128906 335.152344 77.5625 331.40625 C 73 327.65625 68.625 323.695312 64.449219 319.519531 C 60.273438 315.34375 56.308594 310.96875 52.5625 306.402344 C 48.816406 301.839844 45.300781 297.097656 42.019531 292.1875 C 38.738281 287.277344 35.703125 282.214844 32.917969 277.007812 C 30.136719 271.796875 27.613281 266.464844 25.351562 261.003906 C 23.089844 255.546875 21.105469 249.992188 19.390625 244.339844 C 17.675781 238.6875 16.242188 232.964844 15.089844 227.171875 C 13.9375 221.378906 13.070312 215.542969 12.492188 209.664062 C 11.914062 203.785156 11.621094 197.890625 11.621094 191.984375 Z M 11.621094 191.984375 " clip-rule="nonzero"/></clipPath><clipPath id="32391a99d6"><path d="M 120 124 L 145 124 L 145 159 L 120 159 Z M 120 124 " clip-rule="nonzero"/></clipPath><clipPath id="a6592ef8df"><path d="M 11.621094 191.984375 C 11.621094 186.078125 11.914062 180.183594 12.492188 174.304688 C 13.070312 168.425781 13.9375 162.589844 15.089844 156.796875 C 16.242188 151.003906 17.675781 145.28125 19.390625 139.628906 C 21.105469 133.976562 23.089844 128.421875 25.351562 122.964844 C 27.613281 117.503906 30.136719 112.171875 32.917969 106.960938 C 35.703125 101.753906 38.738281 96.691406 42.019531 91.78125 C 45.300781 86.871094 48.816406 82.128906 52.5625 77.5625 C 56.308594 73 60.273438 68.625 64.449219 64.449219 C 68.625 60.273438 73 56.308594 77.5625 52.5625 C 82.128906 48.816406 86.871094 45.300781 91.78125 42.019531 C 96.691406 38.738281 101.753906 35.703125 106.960938 32.917969 C 112.171875 30.136719 117.503906 27.613281 122.964844 25.351562 C 128.421875 23.089844 133.976562 21.105469 139.628906 19.390625 C 145.28125 17.675781 151.003906 16.242188 156.796875 15.089844 C 162.589844 13.9375 168.425781 13.070312 174.304688 12.492188 C 180.183594 11.914062 186.078125 11.621094 191.984375 11.621094 C 197.890625 11.621094 203.785156 11.914062 209.664062 12.492188 C 215.542969 13.070312 221.378906 13.9375 227.171875 15.089844 C 232.964844 16.242188 238.6875 17.675781 244.339844 19.390625 C 249.992188 21.105469 255.546875 23.089844 261.003906 25.351562 C 266.464844 27.613281 271.796875 30.136719 277.007812 32.917969 C 282.214844 35.703125 287.277344 38.738281 292.1875 42.019531 C 297.097656 45.300781 301.839844 48.816406 306.402344 52.5625 C 310.96875 56.308594 315.34375 60.273438 319.519531 64.449219 C 323.695312 68.625 327.65625 73 331.40625 77.5625 C 335.152344 82.128906 338.667969 86.871094 341.949219 91.78125 C 345.230469 96.691406 348.265625 101.753906 351.046875 106.960938 C 353.832031 112.171875 356.355469 117.503906 358.617188 122.964844 C 360.875 128.421875 362.863281 133.976562 364.578125 139.628906 C 366.292969 145.28125 367.726562 151.003906 368.878906 156.796875 C 370.03125 162.589844 370.898438 168.425781 371.476562 174.304688 C 372.054688 180.183594 372.34375 186.078125 372.34375 191.984375 C 372.34375 197.890625 372.054688 203.785156 371.476562 209.664062 C 370.898438 215.542969 370.03125 221.378906 368.878906 227.171875 C 367.726562 232.964844 366.292969 238.6875 364.578125 244.339844 C 362.863281 249.992188 360.875 255.546875 358.617188 261.003906 C 356.355469 266.464844 353.832031 271.796875 351.046875 277.007812 C 348.265625 282.214844 345.230469 287.277344 341.949219 292.1875 C 338.667969 297.097656 335.152344 301.839844 331.40625 306.402344 C 327.65625 310.96875 323.695312 315.34375 319.519531 319.519531 C 315.34375 323.695312 310.96875 327.65625 306.402344 331.40625 C 301.839844 335.152344 297.097656 338.667969 292.1875 341.949219 C 287.277344 345.230469 282.214844 348.265625 277.007812 351.046875 C 271.796875 353.832031 266.464844 356.355469 261.003906 358.617188 C 255.546875 360.875 249.992188 362.863281 244.339844 364.578125 C 238.6875 366.292969 232.964844 367.726562 227.171875 368.878906 C 221.378906 370.03125 215.542969 370.898438 209.664062 371.476562 C 203.785156 372.054688 197.890625 372.34375 191.984375 372.34375 C 186.078125 372.34375 180.183594 372.054688 174.304688 371.476562 C 168.425781 370.898438 162.589844 370.03125 156.796875 368.878906 C 151.003906 367.726562 145.28125 366.292969 139.628906 364.578125 C 133.976562 362.863281 128.421875 360.875 122.964844 358.617188 C 117.503906 356.355469 112.171875 353.832031 106.960938 351.046875 C 101.753906 348.265625 96.691406 345.230469 91.78125 341.949219 C 86.871094 338.667969 82.128906 335.152344 77.5625 331.40625 C 73 327.65625 68.625 323.695312 64.449219 319.519531 C 60.273438 315.34375 56.308594 310.96875 52.5625 306.402344 C 48.816406 301.839844 45.300781 297.097656 42.019531 292.1875 C 38.738281 287.277344 35.703125 282.214844 32.917969 277.007812 C 30.136719 271.796875 27.613281 266.464844 25.351562 261.003906 C 23.089844 255.546875 21.105469 249.992188 19.390625 244.339844 C 17.675781 238.6875 16.242188 232.964844 15.089844 227.171875 C 13.9375 221.378906 13.070312 215.542969 12.492188 209.664062 C 11.914062 203.785156 11.621094 197.890625 11.621094 191.984375 Z M 11.621094 191.984375 " clip-rule="nonzero"/></clipPath><clipPath id="966bb44264"><path d="M 239 124 L 264 124 L 264 159 L 239 159 Z M 239 124 " clip-rule="nonzero"/></clipPath><clipPath id="306dc381c8"><path d="M 11.621094 191.984375 C 11.621094 186.078125 11.914062 180.183594 12.492188 174.304688 C 13.070312 168.425781 13.9375 162.589844 15.089844 156.796875 C 16.242188 151.003906 17.675781 145.28125 19.390625 139.628906 C 21.105469 133.976562 23.089844 128.421875 25.351562 122.964844 C 27.613281 117.503906 30.136719 112.171875 32.917969 106.960938 C 35.703125 101.753906 38.738281 96.691406 42.019531 91.78125 C 45.300781 86.871094 48.816406 82.128906 52.5625 77.5625 C 56.308594 73 60.273438 68.625 64.449219 64.449219 C 68.625 60.273438 73 56.308594 77.5625 52.5625 C 82.128906 48.816406 86.871094 45.300781 91.78125 42.019531 C 96.691406 38.738281 101.753906 35.703125 106.960938 32.917969 C 112.171875 30.136719 117.503906 27.613281 122.964844 25.351562 C 128.421875 23.089844 133.976562 21.105469 139.628906 19.390625 C 145.28125 17.675781 151.003906 16.242188 156.796875 15.089844 C 162.589844 13.9375 168.425781 13.070312 174.304688 12.492188 C 180.183594 11.914062 186.078125 11.621094 191.984375 11.621094 C 197.890625 11.621094 203.785156 11.914062 209.664062 12.492188 C 215.542969 13.070312 221.378906 13.9375 227.171875 15.089844 C 232.964844 16.242188 238.6875 17.675781 244.339844 19.390625 C 249.992188 21.105469 255.546875 23.089844 261.003906 25.351562 C 266.464844 27.613281 271.796875 30.136719 277.007812 32.917969 C 282.214844 35.703125 287.277344 38.738281 292.1875 42.019531 C 297.097656 45.300781 301.839844 48.816406 306.402344 52.5625 C 310.96875 56.308594 315.34375 60.273438 319.519531 64.449219 C 323.695312 68.625 327.65625 73 331.40625 77.5625 C 335.152344 82.128906 338.667969 86.871094 341.949219 91.78125 C 345.230469 96.691406 348.265625 101.753906 351.046875 106.960938 C 353.832031 112.171875 356.355469 117.503906 358.617188 122.964844 C 360.875 128.421875 362.863281 133.976562 364.578125 139.628906 C 366.292969 145.28125 367.726562 151.003906 368.878906 156.796875 C 370.03125 162.589844 370.898438 168.425781 371.476562 174.304688 C 372.054688 180.183594 372.34375 186.078125 372.34375 191.984375 C 372.34375 197.890625 372.054688 203.785156 371.476562 209.664062 C 370.898438 215.542969 370.03125 221.378906 368.878906 227.171875 C 367.726562 232.964844 366.292969 238.6875 364.578125 244.339844 C 362.863281 249.992188 360.875 255.546875 358.617188 261.003906 C 356.355469 266.464844 353.832031 271.796875 351.046875 277.007812 C 348.265625 282.214844 345.230469 287.277344 341.949219 292.1875 C 338.667969 297.097656 335.152344 301.839844 331.40625 306.402344 C 327.65625 310.96875 323.695312 315.34375 319.519531 319.519531 C 315.34375 323.695312 310.96875 327.65625 306.402344 331.40625 C 301.839844 335.152344 297.097656 338.667969 292.1875 341.949219 C 287.277344 345.230469 282.214844 348.265625 277.007812 351.046875 C 271.796875 353.832031 266.464844 356.355469 261.003906 358.617188 C 255.546875 360.875 249.992188 362.863281 244.339844 364.578125 C 238.6875 366.292969 232.964844 367.726562 227.171875 368.878906 C 221.378906 370.03125 215.542969 370.898438 209.664062 371.476562 C 203.785156 372.054688 197.890625 372.34375 191.984375 372.34375 C 186.078125 372.34375 180.183594 372.054688 174.304688 371.476562 C 168.425781 370.898438 162.589844 370.03125 156.796875 368.878906 C 151.003906 367.726562 145.28125 366.292969 139.628906 364.578125 C 133.976562 362.863281 128.421875 360.875 122.964844 358.617188 C 117.503906 356.355469 112.171875 353.832031 106.960938 351.046875 C 101.753906 348.265625 96.691406 345.230469 91.78125 341.949219 C 86.871094 338.667969 82.128906 335.152344 77.5625 331.40625 C 73 327.65625 68.625 323.695312 64.449219 319.519531 C 60.273438 315.34375 56.308594 310.96875 52.5625 306.402344 C 48.816406 301.839844 45.300781 297.097656 42.019531 292.1875 C 38.738281 287.277344 35.703125 282.214844 32.917969 277.007812 C 30.136719 271.796875 27.613281 266.464844 25.351562 261.003906 C 23.089844 255.546875 21.105469 249.992188 19.390625 244.339844 C 17.675781 238.6875 16.242188 232.964844 15.089844 227.171875 C 13.9375 221.378906 13.070312 215.542969 12.492188 209.664062 C 11.914062 203.785156 11.621094 197.890625 11.621094 191.984375 Z M 11.621094 191.984375 " clip-rule="nonzero"/></clipPath><clipPath id="c71a8a325b"><path d="M 39 239 L 345 239 L 345 372.359375 L 39 372.359375 Z M 39 239 " clip-rule="nonzero"/></clipPath><clipPath id="684e17a05e"><path d="M 11.621094 191.984375 C 11.621094 186.078125 11.914062 180.183594 12.492188 174.304688 C 13.070312 168.425781 13.9375 162.589844 15.089844 156.796875 C 16.242188 151.003906 17.675781 145.28125 19.390625 139.628906 C 21.105469 133.976562 23.089844 128.421875 25.351562 122.964844 C 27.613281 117.503906 30.136719 112.171875 32.917969 106.960938 C 35.703125 101.753906 38.738281 96.691406 42.019531 91.78125 C 45.300781 86.871094 48.816406 82.128906 52.5625 77.5625 C 56.308594 73 60.273438 68.625 64.449219 64.449219 C 68.625 60.273438 73 56.308594 77.5625 52.5625 C 82.128906 48.816406 86.871094 45.300781 91.78125 42.019531 C 96.691406 38.738281 101.753906 35.703125 106.960938 32.917969 C 112.171875 30.136719 117.503906 27.613281 122.964844 25.351562 C 128.421875 23.089844 133.976562 21.105469 139.628906 19.390625 C 145.28125 17.675781 151.003906 16.242188 156.796875 15.089844 C 162.589844 13.9375 168.425781 13.070312 174.304688 12.492188 C 180.183594 11.914062 186.078125 11.621094 191.984375 11.621094 C 197.890625 11.621094 203.785156 11.914062 209.664062 12.492188 C 215.542969 13.070312 221.378906 13.9375 227.171875 15.089844 C 232.964844 16.242188 238.6875 17.675781 244.339844 19.390625 C 249.992188 21.105469 255.546875 23.089844 261.003906 25.351562 C 266.464844 27.613281 271.796875 30.136719 277.007812 32.917969 C 282.214844 35.703125 287.277344 38.738281 292.1875 42.019531 C 297.097656 45.300781 301.839844 48.816406 306.402344 52.5625 C 310.96875 56.308594 315.34375 60.273438 319.519531 64.449219 C 323.695312 68.625 327.65625 73 331.40625 77.5625 C 335.152344 82.128906 338.667969 86.871094 341.949219 91.78125 C 345.230469 96.691406 348.265625 101.753906 351.046875 106.960938 C 353.832031 112.171875 356.355469 117.503906 358.617188 122.964844 C 360.875 128.421875 362.863281 133.976562 364.578125 139.628906 C 366.292969 145.28125 367.726562 151.003906 368.878906 156.796875 C 370.03125 162.589844 370.898438 168.425781 371.476562 174.304688 C 372.054688 180.183594 372.34375 186.078125 372.34375 191.984375 C 372.34375 197.890625 372.054688 203.785156 371.476562 209.664062 C 370.898438 215.542969 370.03125 221.378906 368.878906 227.171875 C 367.726562 232.964844 366.292969 238.6875 364.578125 244.339844 C 362.863281 249.992188 360.875 255.546875 358.617188 261.003906 C 356.355469 266.464844 353.832031 271.796875 351.046875 277.007812 C 348.265625 282.214844 345.230469 287.277344 341.949219 292.1875 C 338.667969 297.097656 335.152344 301.839844 331.40625 306.402344 C 327.65625 310.96875 323.695312 315.34375 319.519531 319.519531 C 315.34375 323.695312 310.96875 327.65625 306.402344 331.40625 C 301.839844 335.152344 297.097656 338.667969 292.1875 341.949219 C 287.277344 345.230469 282.214844 348.265625 277.007812 351.046875 C 271.796875 353.832031 266.464844 356.355469 261.003906 358.617188 C 255.546875 360.875 249.992188 362.863281 244.339844 364.578125 C 238.6875 366.292969 232.964844 367.726562 227.171875 368.878906 C 221.378906 370.03125 215.542969 370.898438 209.664062 371.476562 C 203.785156 372.054688 197.890625 372.34375 191.984375 372.34375 C 186.078125 372.34375 180.183594 372.054688 174.304688 371.476562 C 168.425781 370.898438 162.589844 370.03125 156.796875 368.878906 C 151.003906 367.726562 145.28125 366.292969 139.628906 364.578125 C 133.976562 362.863281 128.421875 360.875 122.964844 358.617188 C 117.503906 356.355469 112.171875 353.832031 106.960938 351.046875 C 101.753906 348.265625 96.691406 345.230469 91.78125 341.949219 C 86.871094 338.667969 82.128906 335.152344 77.5625 331.40625 C 73 327.65625 68.625 323.695312 64.449219 319.519531 C 60.273438 315.34375 56.308594 310.96875 52.5625 306.402344 C 48.816406 301.839844 45.300781 297.097656 42.019531 292.1875 C 38.738281 287.277344 35.703125 282.214844 32.917969 277.007812 C 30.136719 271.796875 27.613281 266.464844 25.351562 261.003906 C 23.089844 255.546875 21.105469 249.992188 19.390625 244.339844 C 17.675781 238.6875 16.242188 232.964844 15.089844 227.171875 C 13.9375 221.378906 13.070312 215.542969 12.492188 209.664062 C 11.914062 203.785156 11.621094 197.890625 11.621094 191.984375 Z M 11.621094 191.984375 " clip-rule="nonzero"/></clipPath><clipPath id="35b70e1d00"><path d="M 191 237 L 251 237 L 251 314 L 191 314 Z M 191 237 " clip-rule="nonzero"/></clipPath><clipPath id="328db20fc3"><path d="M 11.621094 191.984375 C 11.621094 186.078125 11.914062 180.183594 12.492188 174.304688 C 13.070312 168.425781 13.9375 162.589844 15.089844 156.796875 C 16.242188 151.003906 17.675781 145.28125 19.390625 139.628906 C 21.105469 133.976562 23.089844 128.421875 25.351562 122.964844 C 27.613281 117.503906 30.136719 112.171875 32.917969 106.960938 C 35.703125 101.753906 38.738281 96.691406 42.019531 91.78125 C 45.300781 86.871094 48.816406 82.128906 52.5625 77.5625 C 56.308594 73 60.273438 68.625 64.449219 64.449219 C 68.625 60.273438 73 56.308594 77.5625 52.5625 C 82.128906 48.816406 86.871094 45.300781 91.78125 42.019531 C 96.691406 38.738281 101.753906 35.703125 106.960938 32.917969 C 112.171875 30.136719 117.503906 27.613281 122.964844 25.351562 C 128.421875 23.089844 133.976562 21.105469 139.628906 19.390625 C 145.28125 17.675781 151.003906 16.242188 156.796875 15.089844 C 162.589844 13.9375 168.425781 13.070312 174.304688 12.492188 C 180.183594 11.914062 186.078125 11.621094 191.984375 11.621094 C 197.890625 11.621094 203.785156 11.914062 209.664062 12.492188 C 215.542969 13.070312 221.378906 13.9375 227.171875 15.089844 C 232.964844 16.242188 238.6875 17.675781 244.339844 19.390625 C 249.992188 21.105469 255.546875 23.089844 261.003906 25.351562 C 266.464844 27.613281 271.796875 30.136719 277.007812 32.917969 C 282.214844 35.703125 287.277344 38.738281 292.1875 42.019531 C 297.097656 45.300781 301.839844 48.816406 306.402344 52.5625 C 310.96875 56.308594 315.34375 60.273438 319.519531 64.449219 C 323.695312 68.625 327.65625 73 331.40625 77.5625 C 335.152344 82.128906 338.667969 86.871094 341.949219 91.78125 C 345.230469 96.691406 348.265625 101.753906 351.046875 106.960938 C 353.832031 112.171875 356.355469 117.503906 358.617188 122.964844 C 360.875 128.421875 362.863281 133.976562 364.578125 139.628906 C 366.292969 145.28125 367.726562 151.003906 368.878906 156.796875 C 370.03125 162.589844 370.898438 168.425781 371.476562 174.304688 C 372.054688 180.183594 372.34375 186.078125 372.34375 191.984375 C 372.34375 197.890625 372.054688 203.785156 371.476562 209.664062 C 370.898438 215.542969 370.03125 221.378906 368.878906 227.171875 C 367.726562 232.964844 366.292969 238.6875 364.578125 244.339844 C 362.863281 249.992188 360.875 255.546875 358.617188 261.003906 C 356.355469 266.464844 353.832031 271.796875 351.046875 277.007812 C 348.265625 282.214844 345.230469 287.277344 341.949219 292.1875 C 338.667969 297.097656 335.152344 301.839844 331.40625 306.402344 C 327.65625 310.96875 323.695312 315.34375 319.519531 319.519531 C 315.34375 323.695312 310.96875 327.65625 306.402344 331.40625 C 301.839844 335.152344 297.097656 338.667969 292.1875 341.949219 C 287.277344 345.230469 282.214844 348.265625 277.007812 351.046875 C 271.796875 353.832031 266.464844 356.355469 261.003906 358.617188 C 255.546875 360.875 249.992188 362.863281 244.339844 364.578125 C 238.6875 366.292969 232.964844 367.726562 227.171875 368.878906 C 221.378906 370.03125 215.542969 370.898438 209.664062 371.476562 C 203.785156 372.054688 197.890625 372.34375 191.984375 372.34375 C 186.078125 372.34375 180.183594 372.054688 174.304688 371.476562 C 168.425781 370.898438 162.589844 370.03125 156.796875 368.878906 C 151.003906 367.726562 145.28125 366.292969 139.628906 364.578125 C 133.976562 362.863281 128.421875 360.875 122.964844 358.617188 C 117.503906 356.355469 112.171875 353.832031 106.960938 351.046875 C 101.753906 348.265625 96.691406 345.230469 91.78125 341.949219 C 86.871094 338.667969 82.128906 335.152344 77.5625 331.40625 C 73 327.65625 68.625 323.695312 64.449219 319.519531 C 60.273438 315.34375 56.308594 310.96875 52.5625 306.402344 C 48.816406 301.839844 45.300781 297.097656 42.019531 292.1875 C 38.738281 287.277344 35.703125 282.214844 32.917969 277.007812 C 30.136719 271.796875 27.613281 266.464844 25.351562 261.003906 C 23.089844 255.546875 21.105469 249.992188 19.390625 244.339844 C 17.675781 238.6875 16.242188 232.964844 15.089844 227.171875 C 13.9375 221.378906 13.070312 215.542969 12.492188 209.664062 C 11.914062 203.785156 11.621094 197.890625 11.621094 191.984375 Z M 11.621094 191.984375 " clip-rule="nonzero"/></clipPath><clipPath id="9c892212a7"><path d="M 133 237 L 192 237 L 192 314 L 133 314 Z M 133 237 " clip-rule="nonzero"/></clipPath><clipPath id="9a69828b43"><path d="M 11.621094 191.984375 C 11.621094 186.078125 11.914062 180.183594 12.492188 174.304688 C 13.070312 168.425781 13.9375 162.589844 15.089844 156.796875 C 16.242188 151.003906 17.675781 145.28125 19.390625 139.628906 C 21.105469 133.976562 23.089844 128.421875 25.351562 122.964844 C 27.613281 117.503906 30.136719 112.171875 32.917969 106.960938 C 35.703125 101.753906 38.738281 96.691406 42.019531 91.78125 C 45.300781 86.871094 48.816406 82.128906 52.5625 77.5625 C 56.308594 73 60.273438 68.625 64.449219 64.449219 C 68.625 60.273438 73 56.308594 77.5625 52.5625 C 82.128906 48.816406 86.871094 45.300781 91.78125 42.019531 C 96.691406 38.738281 101.753906 35.703125 106.960938 32.917969 C 112.171875 30.136719 117.503906 27.613281 122.964844 25.351562 C 128.421875 23.089844 133.976562 21.105469 139.628906 19.390625 C 145.28125 17.675781 151.003906 16.242188 156.796875 15.089844 C 162.589844 13.9375 168.425781 13.070312 174.304688 12.492188 C 180.183594 11.914062 186.078125 11.621094 191.984375 11.621094 C 197.890625 11.621094 203.785156 11.914062 209.664062 12.492188 C 215.542969 13.070312 221.378906 13.9375 227.171875 15.089844 C 232.964844 16.242188 238.6875 17.675781 244.339844 19.390625 C 249.992188 21.105469 255.546875 23.089844 261.003906 25.351562 C 266.464844 27.613281 271.796875 30.136719 277.007812 32.917969 C 282.214844 35.703125 287.277344 38.738281 292.1875 42.019531 C 297.097656 45.300781 301.839844 48.816406 306.402344 52.5625 C 310.96875 56.308594 315.34375 60.273438 319.519531 64.449219 C 323.695312 68.625 327.65625 73 331.40625 77.5625 C 335.152344 82.128906 338.667969 86.871094 341.949219 91.78125 C 345.230469 96.691406 348.265625 101.753906 351.046875 106.960938 C 353.832031 112.171875 356.355469 117.503906 358.617188 122.964844 C 360.875 128.421875 362.863281 133.976562 364.578125 139.628906 C 366.292969 145.28125 367.726562 151.003906 368.878906 156.796875 C 370.03125 162.589844 370.898438 168.425781 371.476562 174.304688 C 372.054688 180.183594 372.34375 186.078125 372.34375 191.984375 C 372.34375 197.890625 372.054688 203.785156 371.476562 209.664062 C 370.898438 215.542969 370.03125 221.378906 368.878906 227.171875 C 367.726562 232.964844 366.292969 238.6875 364.578125 244.339844 C 362.863281 249.992188 360.875 255.546875 358.617188 261.003906 C 356.355469 266.464844 353.832031 271.796875 351.046875 277.007812 C 348.265625 282.214844 345.230469 287.277344 341.949219 292.1875 C 338.667969 297.097656 335.152344 301.839844 331.40625 306.402344 C 327.65625 310.96875 323.695312 315.34375 319.519531 319.519531 C 315.34375 323.695312 310.96875 327.65625 306.402344 331.40625 C 301.839844 335.152344 297.097656 338.667969 292.1875 341.949219 C 287.277344 345.230469 282.214844 348.265625 277.007812 351.046875 C 271.796875 353.832031 266.464844 356.355469 261.003906 358.617188 C 255.546875 360.875 249.992188 362.863281 244.339844 364.578125 C 238.6875 366.292969 232.964844 367.726562 227.171875 368.878906 C 221.378906 370.03125 215.542969 370.898438 209.664062 371.476562 C 203.785156 372.054688 197.890625 372.34375 191.984375 372.34375 C 186.078125 372.34375 180.183594 372.054688 174.304688 371.476562 C 168.425781 370.898438 162.589844 370.03125 156.796875 368.878906 C 151.003906 367.726562 145.28125 366.292969 139.628906 364.578125 C 133.976562 362.863281 128.421875 360.875 122.964844 358.617188 C 117.503906 356.355469 112.171875 353.832031 106.960938 351.046875 C 101.753906 348.265625 96.691406 345.230469 91.78125 341.949219 C 86.871094 338.667969 82.128906 335.152344 77.5625 331.40625 C 73 327.65625 68.625 323.695312 64.449219 319.519531 C 60.273438 315.34375 56.308594 310.96875 52.5625 306.402344 C 48.816406 301.839844 45.300781 297.097656 42.019531 292.1875 C 38.738281 287.277344 35.703125 282.214844 32.917969 277.007812 C 30.136719 271.796875 27.613281 266.464844 25.351562 261.003906 C 23.089844 255.546875 21.105469 249.992188 19.390625 244.339844 C 17.675781 238.6875 16.242188 232.964844 15.089844 227.171875 C 13.9375 221.378906 13.070312 215.542969 12.492188 209.664062 C 11.914062 203.785156 11.621094 197.890625 11.621094 191.984375 Z M 11.621094 191.984375 " clip-rule="nonzero"/></clipPath><clipPath id="210b559e32"><path d="M 197 237 L 251 237 L 251 310 L 197 310 Z M 197 237 " clip-rule="nonzero"/></clipPath><clipPath id="c53ed3a87d"><path d="M 11.621094 191.984375 C 11.621094 186.078125 11.914062 180.183594 12.492188 174.304688 C 13.070312 168.425781 13.9375 162.589844 15.089844 156.796875 C 16.242188 151.003906 17.675781 145.28125 19.390625 139.628906 C 21.105469 133.976562 23.089844 128.421875 25.351562 122.964844 C 27.613281 117.503906 30.136719 112.171875 32.917969 106.960938 C 35.703125 101.753906 38.738281 96.691406 42.019531 91.78125 C 45.300781 86.871094 48.816406 82.128906 52.5625 77.5625 C 56.308594 73 60.273438 68.625 64.449219 64.449219 C 68.625 60.273438 73 56.308594 77.5625 52.5625 C 82.128906 48.816406 86.871094 45.300781 91.78125 42.019531 C 96.691406 38.738281 101.753906 35.703125 106.960938 32.917969 C 112.171875 30.136719 117.503906 27.613281 122.964844 25.351562 C 128.421875 23.089844 133.976562 21.105469 139.628906 19.390625 C 145.28125 17.675781 151.003906 16.242188 156.796875 15.089844 C 162.589844 13.9375 168.425781 13.070312 174.304688 12.492188 C 180.183594 11.914062 186.078125 11.621094 191.984375 11.621094 C 197.890625 11.621094 203.785156 11.914062 209.664062 12.492188 C 215.542969 13.070312 221.378906 13.9375 227.171875 15.089844 C 232.964844 16.242188 238.6875 17.675781 244.339844 19.390625 C 249.992188 21.105469 255.546875 23.089844 261.003906 25.351562 C 266.464844 27.613281 271.796875 30.136719 277.007812 32.917969 C 282.214844 35.703125 287.277344 38.738281 292.1875 42.019531 C 297.097656 45.300781 301.839844 48.816406 306.402344 52.5625 C 310.96875 56.308594 315.34375 60.273438 319.519531 64.449219 C 323.695312 68.625 327.65625 73 331.40625 77.5625 C 335.152344 82.128906 338.667969 86.871094 341.949219 91.78125 C 345.230469 96.691406 348.265625 101.753906 351.046875 106.960938 C 353.832031 112.171875 356.355469 117.503906 358.617188 122.964844 C 360.875 128.421875 362.863281 133.976562 364.578125 139.628906 C 366.292969 145.28125 367.726562 151.003906 368.878906 156.796875 C 370.03125 162.589844 370.898438 168.425781 371.476562 174.304688 C 372.054688 180.183594 372.34375 186.078125 372.34375 191.984375 C 372.34375 197.890625 372.054688 203.785156 371.476562 209.664062 C 370.898438 215.542969 370.03125 221.378906 368.878906 227.171875 C 367.726562 232.964844 366.292969 238.6875 364.578125 244.339844 C 362.863281 249.992188 360.875 255.546875 358.617188 261.003906 C 356.355469 266.464844 353.832031 271.796875 351.046875 277.007812 C 348.265625 282.214844 345.230469 287.277344 341.949219 292.1875 C 338.667969 297.097656 335.152344 301.839844 331.40625 306.402344 C 327.65625 310.96875 323.695312 315.34375 319.519531 319.519531 C 315.34375 323.695312 310.96875 327.65625 306.402344 331.40625 C 301.839844 335.152344 297.097656 338.667969 292.1875 341.949219 C 287.277344 345.230469 282.214844 348.265625 277.007812 351.046875 C 271.796875 353.832031 266.464844 356.355469 261.003906 358.617188 C 255.546875 360.875 249.992188 362.863281 244.339844 364.578125 C 238.6875 366.292969 232.964844 367.726562 227.171875 368.878906 C 221.378906 370.03125 215.542969 370.898438 209.664062 371.476562 C 203.785156 372.054688 197.890625 372.34375 191.984375 372.34375 C 186.078125 372.34375 180.183594 372.054688 174.304688 371.476562 C 168.425781 370.898438 162.589844 370.03125 156.796875 368.878906 C 151.003906 367.726562 145.28125 366.292969 139.628906 364.578125 C 133.976562 362.863281 128.421875 360.875 122.964844 358.617188 C 117.503906 356.355469 112.171875 353.832031 106.960938 351.046875 C 101.753906 348.265625 96.691406 345.230469 91.78125 341.949219 C 86.871094 338.667969 82.128906 335.152344 77.5625 331.40625 C 73 327.65625 68.625 323.695312 64.449219 319.519531 C 60.273438 315.34375 56.308594 310.96875 52.5625 306.402344 C 48.816406 301.839844 45.300781 297.097656 42.019531 292.1875 C 38.738281 287.277344 35.703125 282.214844 32.917969 277.007812 C 30.136719 271.796875 27.613281 266.464844 25.351562 261.003906 C 23.089844 255.546875 21.105469 249.992188 19.390625 244.339844 C 17.675781 238.6875 16.242188 232.964844 15.089844 227.171875 C 13.9375 221.378906 13.070312 215.542969 12.492188 209.664062 C 11.914062 203.785156 11.621094 197.890625 11.621094 191.984375 Z M 11.621094 191.984375 " clip-rule="nonzero"/></clipPath><clipPath id="1d54988afd"><path d="M 133 237 L 188 237 L 188 310 L 133 310 Z M 133 237 " clip-rule="nonzero"/></clipPath><clipPath id="ea4cbb53da"><path d="M 11.621094 191.984375 C 11.621094 186.078125 11.914062 180.183594 12.492188 174.304688 C 13.070312 168.425781 13.9375 162.589844 15.089844 156.796875 C 16.242188 151.003906 17.675781 145.28125 19.390625 139.628906 C 21.105469 133.976562 23.089844 128.421875 25.351562 122.964844 C 27.613281 117.503906 30.136719 112.171875 32.917969 106.960938 C 35.703125 101.753906 38.738281 96.691406 42.019531 91.78125 C 45.300781 86.871094 48.816406 82.128906 52.5625 77.5625 C 56.308594 73 60.273438 68.625 64.449219 64.449219 C 68.625 60.273438 73 56.308594 77.5625 52.5625 C 82.128906 48.816406 86.871094 45.300781 91.78125 42.019531 C 96.691406 38.738281 101.753906 35.703125 106.960938 32.917969 C 112.171875 30.136719 117.503906 27.613281 122.964844 25.351562 C 128.421875 23.089844 133.976562 21.105469 139.628906 19.390625 C 145.28125 17.675781 151.003906 16.242188 156.796875 15.089844 C 162.589844 13.9375 168.425781 13.070312 174.304688 12.492188 C 180.183594 11.914062 186.078125 11.621094 191.984375 11.621094 C 197.890625 11.621094 203.785156 11.914062 209.664062 12.492188 C 215.542969 13.070312 221.378906 13.9375 227.171875 15.089844 C 232.964844 16.242188 238.6875 17.675781 244.339844 19.390625 C 249.992188 21.105469 255.546875 23.089844 261.003906 25.351562 C 266.464844 27.613281 271.796875 30.136719 277.007812 32.917969 C 282.214844 35.703125 287.277344 38.738281 292.1875 42.019531 C 297.097656 45.300781 301.839844 48.816406 306.402344 52.5625 C 310.96875 56.308594 315.34375 60.273438 319.519531 64.449219 C 323.695312 68.625 327.65625 73 331.40625 77.5625 C 335.152344 82.128906 338.667969 86.871094 341.949219 91.78125 C 345.230469 96.691406 348.265625 101.753906 351.046875 106.960938 C 353.832031 112.171875 356.355469 117.503906 358.617188 122.964844 C 360.875 128.421875 362.863281 133.976562 364.578125 139.628906 C 366.292969 145.28125 367.726562 151.003906 368.878906 156.796875 C 370.03125 162.589844 370.898438 168.425781 371.476562 174.304688 C 372.054688 180.183594 372.34375 186.078125 372.34375 191.984375 C 372.34375 197.890625 372.054688 203.785156 371.476562 209.664062 C 370.898438 215.542969 370.03125 221.378906 368.878906 227.171875 C 367.726562 232.964844 366.292969 238.6875 364.578125 244.339844 C 362.863281 249.992188 360.875 255.546875 358.617188 261.003906 C 356.355469 266.464844 353.832031 271.796875 351.046875 277.007812 C 348.265625 282.214844 345.230469 287.277344 341.949219 292.1875 C 338.667969 297.097656 335.152344 301.839844 331.40625 306.402344 C 327.65625 310.96875 323.695312 315.34375 319.519531 319.519531 C 315.34375 323.695312 310.96875 327.65625 306.402344 331.40625 C 301.839844 335.152344 297.097656 338.667969 292.1875 341.949219 C 287.277344 345.230469 282.214844 348.265625 277.007812 351.046875 C 271.796875 353.832031 266.464844 356.355469 261.003906 358.617188 C 255.546875 360.875 249.992188 362.863281 244.339844 364.578125 C 238.6875 366.292969 232.964844 367.726562 227.171875 368.878906 C 221.378906 370.03125 215.542969 370.898438 209.664062 371.476562 C 203.785156 372.054688 197.890625 372.34375 191.984375 372.34375 C 186.078125 372.34375 180.183594 372.054688 174.304688 371.476562 C 168.425781 370.898438 162.589844 370.03125 156.796875 368.878906 C 151.003906 367.726562 145.28125 366.292969 139.628906 364.578125 C 133.976562 362.863281 128.421875 360.875 122.964844 358.617188 C 117.503906 356.355469 112.171875 353.832031 106.960938 351.046875 C 101.753906 348.265625 96.691406 345.230469 91.78125 341.949219 C 86.871094 338.667969 82.128906 335.152344 77.5625 331.40625 C 73 327.65625 68.625 323.695312 64.449219 319.519531 C 60.273438 315.34375 56.308594 310.96875 52.5625 306.402344 C 48.816406 301.839844 45.300781 297.097656 42.019531 292.1875 C 38.738281 287.277344 35.703125 282.214844 32.917969 277.007812 C 30.136719 271.796875 27.613281 266.464844 25.351562 261.003906 C 23.089844 255.546875 21.105469 249.992188 19.390625 244.339844 C 17.675781 238.6875 16.242188 232.964844 15.089844 227.171875 C 13.9375 221.378906 13.070312 215.542969 12.492188 209.664062 C 11.914062 203.785156 11.621094 197.890625 11.621094 191.984375 Z M 11.621094 191.984375 " clip-rule="nonzero"/></clipPath><clipPath id="13a2c7e495"><path d="M 189 297 L 194 297 L 194 372.359375 L 189 372.359375 Z M 189 297 " clip-rule="nonzero"/></clipPath><clipPath id="d08d3093c6"><path d="M 11.621094 191.984375 C 11.621094 186.078125 11.914062 180.183594 12.492188 174.304688 C 13.070312 168.425781 13.9375 162.589844 15.089844 156.796875 C 16.242188 151.003906 17.675781 145.28125 19.390625 139.628906 C 21.105469 133.976562 23.089844 128.421875 25.351562 122.964844 C 27.613281 117.503906 30.136719 112.171875 32.917969 106.960938 C 35.703125 101.753906 38.738281 96.691406 42.019531 91.78125 C 45.300781 86.871094 48.816406 82.128906 52.5625 77.5625 C 56.308594 73 60.273438 68.625 64.449219 64.449219 C 68.625 60.273438 73 56.308594 77.5625 52.5625 C 82.128906 48.816406 86.871094 45.300781 91.78125 42.019531 C 96.691406 38.738281 101.753906 35.703125 106.960938 32.917969 C 112.171875 30.136719 117.503906 27.613281 122.964844 25.351562 C 128.421875 23.089844 133.976562 21.105469 139.628906 19.390625 C 145.28125 17.675781 151.003906 16.242188 156.796875 15.089844 C 162.589844 13.9375 168.425781 13.070312 174.304688 12.492188 C 180.183594 11.914062 186.078125 11.621094 191.984375 11.621094 C 197.890625 11.621094 203.785156 11.914062 209.664062 12.492188 C 215.542969 13.070312 221.378906 13.9375 227.171875 15.089844 C 232.964844 16.242188 238.6875 17.675781 244.339844 19.390625 C 249.992188 21.105469 255.546875 23.089844 261.003906 25.351562 C 266.464844 27.613281 271.796875 30.136719 277.007812 32.917969 C 282.214844 35.703125 287.277344 38.738281 292.1875 42.019531 C 297.097656 45.300781 301.839844 48.816406 306.402344 52.5625 C 310.96875 56.308594 315.34375 60.273438 319.519531 64.449219 C 323.695312 68.625 327.65625 73 331.40625 77.5625 C 335.152344 82.128906 338.667969 86.871094 341.949219 91.78125 C 345.230469 96.691406 348.265625 101.753906 351.046875 106.960938 C 353.832031 112.171875 356.355469 117.503906 358.617188 122.964844 C 360.875 128.421875 362.863281 133.976562 364.578125 139.628906 C 366.292969 145.28125 367.726562 151.003906 368.878906 156.796875 C 370.03125 162.589844 370.898438 168.425781 371.476562 174.304688 C 372.054688 180.183594 372.34375 186.078125 372.34375 191.984375 C 372.34375 197.890625 372.054688 203.785156 371.476562 209.664062 C 370.898438 215.542969 370.03125 221.378906 368.878906 227.171875 C 367.726562 232.964844 366.292969 238.6875 364.578125 244.339844 C 362.863281 249.992188 360.875 255.546875 358.617188 261.003906 C 356.355469 266.464844 353.832031 271.796875 351.046875 277.007812 C 348.265625 282.214844 345.230469 287.277344 341.949219 292.1875 C 338.667969 297.097656 335.152344 301.839844 331.40625 306.402344 C 327.65625 310.96875 323.695312 315.34375 319.519531 319.519531 C 315.34375 323.695312 310.96875 327.65625 306.402344 331.40625 C 301.839844 335.152344 297.097656 338.667969 292.1875 341.949219 C 287.277344 345.230469 282.214844 348.265625 277.007812 351.046875 C 271.796875 353.832031 266.464844 356.355469 261.003906 358.617188 C 255.546875 360.875 249.992188 362.863281 244.339844 364.578125 C 238.6875 366.292969 232.964844 367.726562 227.171875 368.878906 C 221.378906 370.03125 215.542969 370.898438 209.664062 371.476562 C 203.785156 372.054688 197.890625 372.34375 191.984375 372.34375 C 186.078125 372.34375 180.183594 372.054688 174.304688 371.476562 C 168.425781 370.898438 162.589844 370.03125 156.796875 368.878906 C 151.003906 367.726562 145.28125 366.292969 139.628906 364.578125 C 133.976562 362.863281 128.421875 360.875 122.964844 358.617188 C 117.503906 356.355469 112.171875 353.832031 106.960938 351.046875 C 101.753906 348.265625 96.691406 345.230469 91.78125 341.949219 C 86.871094 338.667969 82.128906 335.152344 77.5625 331.40625 C 73 327.65625 68.625 323.695312 64.449219 319.519531 C 60.273438 315.34375 56.308594 310.96875 52.5625 306.402344 C 48.816406 301.839844 45.300781 297.097656 42.019531 292.1875 C 38.738281 287.277344 35.703125 282.214844 32.917969 277.007812 C 30.136719 271.796875 27.613281 266.464844 25.351562 261.003906 C 23.089844 255.546875 21.105469 249.992188 19.390625 244.339844 C 17.675781 238.6875 16.242188 232.964844 15.089844 227.171875 C 13.9375 221.378906 13.070312 215.542969 12.492188 209.664062 C 11.914062 203.785156 11.621094 197.890625 11.621094 191.984375 Z M 11.621094 191.984375 " clip-rule="nonzero"/></clipPath></defs><g clip-path="url(#4d501e1a20)"><path fill="#f6e3d2" d="M 372.34375 191.984375 C 372.34375 194.9375 372.273438 197.886719 372.128906 200.835938 C 371.984375 203.78125 371.765625 206.726562 371.476562 209.664062 C 371.1875 212.601562 370.828125 215.527344 370.394531 218.449219 C 369.960938 221.367188 369.457031 224.277344 368.878906 227.171875 C 368.304688 230.066406 367.65625 232.945312 366.941406 235.808594 C 366.222656 238.671875 365.4375 241.515625 364.578125 244.339844 C 363.722656 247.164062 362.796875 249.96875 361.800781 252.746094 C 360.808594 255.523438 359.746094 258.277344 358.617188 261.003906 C 357.488281 263.734375 356.289062 266.429688 355.027344 269.097656 C 353.765625 271.765625 352.441406 274.402344 351.046875 277.007812 C 349.65625 279.609375 348.203125 282.175781 346.683594 284.707031 C 345.167969 287.242188 343.589844 289.734375 341.949219 292.1875 C 340.308594 294.640625 338.609375 297.054688 336.851562 299.425781 C 335.09375 301.796875 333.277344 304.121094 331.40625 306.402344 C 329.53125 308.6875 327.605469 310.921875 325.625 313.109375 C 323.640625 315.292969 321.605469 317.433594 319.519531 319.519531 C 317.433594 321.605469 315.292969 323.640625 313.109375 325.625 C 310.921875 327.605469 308.6875 329.53125 306.402344 331.40625 C 304.121094 333.277344 301.796875 335.09375 299.425781 336.851562 C 297.054688 338.609375 294.640625 340.308594 292.1875 341.949219 C 289.734375 343.589844 287.242188 345.167969 284.707031 346.683594 C 282.175781 348.203125 279.609375 349.65625 277.007812 351.046875 C 274.402344 352.441406 271.765625 353.765625 269.097656 355.027344 C 266.429688 356.289062 263.734375 357.488281 261.003906 358.617188 C 258.277344 359.746094 255.523438 360.808594 252.746094 361.800781 C 249.96875 362.796875 247.164062 363.722656 244.339844 364.578125 C 241.515625 365.4375 238.671875 366.222656 235.808594 366.941406 C 232.945312 367.65625 230.066406 368.304688 227.171875 368.878906 C 224.277344 369.457031 221.367188 369.960938 218.449219 370.394531 C 215.527344 370.828125 212.601562 371.1875 209.664062 371.476562 C 206.726562 371.765625 203.78125 371.984375 200.835938 372.128906 C 197.886719 372.273438 194.9375 372.34375 191.984375 372.34375 C 189.03125 372.34375 186.082031 372.273438 183.132812 372.128906 C 180.1875 371.984375 177.242188 371.765625 174.304688 371.476562 C 171.367188 371.1875 168.441406 370.828125 165.519531 370.394531 C 162.601562 369.960938 159.691406 369.457031 156.796875 368.878906 C 153.902344 368.304688 151.023438 367.65625 148.160156 366.941406 C 145.296875 366.222656 142.453125 365.4375 139.628906 364.578125 C 136.804688 363.722656 134 362.796875 131.222656 361.800781 C 128.441406 360.808594 125.691406 359.746094 122.964844 358.617188 C 120.234375 357.488281 117.539062 356.289062 114.871094 355.027344 C 112.203125 353.765625 109.566406 352.441406 106.960938 351.046875 C 104.359375 349.65625 101.792969 348.203125 99.261719 346.683594 C 96.726562 345.167969 94.234375 343.589844 91.78125 341.949219 C 89.328125 340.308594 86.914062 338.609375 84.542969 336.851562 C 82.171875 335.09375 79.847656 333.277344 77.5625 331.40625 C 75.28125 329.53125 73.046875 327.605469 70.859375 325.625 C 68.675781 323.640625 66.535156 321.605469 64.449219 319.519531 C 62.363281 317.433594 60.328125 315.292969 58.34375 313.109375 C 56.363281 310.921875 54.4375 308.6875 52.5625 306.402344 C 50.691406 304.121094 48.875 301.796875 47.117188 299.425781 C 45.359375 297.054688 43.660156 294.640625 42.019531 292.1875 C 40.378906 289.734375 38.800781 287.242188 37.285156 284.707031 C 35.765625 282.175781 34.3125 279.609375 32.917969 277.007812 C 31.527344 274.402344 30.203125 271.765625 28.941406 269.097656 C 27.675781 266.429688 26.480469 263.734375 25.351562 261.003906 C 24.222656 258.277344 23.160156 255.523438 22.167969 252.746094 C 21.171875 249.96875 20.246094 247.164062 19.390625 244.339844 C 18.53125 241.515625 17.746094 238.671875 17.027344 235.808594 C 16.3125 232.945312 15.664062 230.066406 15.089844 227.171875 C 14.511719 224.277344 14.007812 221.367188 13.574219 218.449219 C 13.140625 215.527344 12.78125 212.601562 12.492188 209.664062 C 12.203125 206.726562 11.984375 203.78125 11.839844 200.835938 C 11.695312 197.886719 11.621094 194.9375 11.621094 191.984375 C 11.621094 189.03125 11.695312 186.082031 11.839844 183.132812 C 11.984375 180.1875 12.203125 177.242188 12.492188 174.304688 C 12.78125 171.367188 13.140625 168.441406 13.574219 165.519531 C 14.007812 162.601562 14.511719 159.691406 15.089844 156.796875 C 15.664062 153.902344 16.3125 151.023438 17.027344 148.160156 C 17.746094 145.296875 18.53125 142.453125 19.390625 139.628906 C 20.246094 136.804688 21.171875 134 22.167969 131.222656 C 23.160156 128.441406 24.222656 125.691406 25.351562 122.964844 C 26.480469 120.234375 27.675781 117.539062 28.941406 114.871094 C 30.203125 112.203125 31.527344 109.566406 32.917969 106.960938 C 34.3125 104.359375 35.765625 101.792969 37.285156 99.261719 C 38.800781 96.726562 40.378906 94.234375 42.019531 91.78125 C 43.660156 89.328125 45.359375 86.914062 47.117188 84.542969 C 48.875 82.171875 50.691406 79.847656 52.5625 77.5625 C 54.4375 75.28125 56.363281 73.046875 58.34375 70.859375 C 60.328125 68.675781 62.363281 66.535156 64.449219 64.449219 C 66.535156 62.363281 68.675781 60.328125 70.859375 58.34375 C 73.046875 56.363281 75.28125 54.4375 77.5625 52.5625 C 79.847656 50.691406 82.171875 48.875 84.542969 47.117188 C 86.914062 45.359375 89.328125 43.660156 91.78125 42.019531 C 94.234375 40.378906 96.726562 38.800781 99.261719 37.285156 C 101.792969 35.765625 104.359375 34.3125 106.960938 32.917969 C 109.566406 31.527344 112.203125 30.203125 114.871094 28.941406 C 117.539062 27.675781 120.234375 26.480469 122.964844 25.351562 C 125.691406 24.222656 128.441406 23.160156 131.222656 22.167969 C 134 21.171875 136.804688 20.246094 139.628906 19.390625 C 142.453125 18.53125 145.296875 17.746094 148.160156 17.027344 C 151.023438 16.3125 153.902344 15.664062 156.796875 15.089844 C 159.691406 14.511719 162.601562 14.007812 165.519531 13.574219 C 168.441406 13.140625 171.367188 12.78125 174.304688 12.492188 C 177.242188 12.203125 180.1875 11.984375 183.132812 11.839844 C 186.082031 11.695312 189.03125 11.621094 191.984375 11.621094 C 194.9375 11.621094 197.886719 11.695312 200.835938 11.839844 C 203.78125 11.984375 206.726562 12.203125 209.664062 12.492188 C 212.601562 12.78125 215.527344 13.140625 218.449219 13.574219 C 221.367188 14.007812 224.277344 14.511719 227.171875 15.089844 C 230.066406 15.664062 232.945312 16.3125 235.808594 17.027344 C 238.671875 17.746094 241.515625 18.53125 244.339844 19.390625 C 247.164062 20.246094 249.96875 21.171875 252.746094 22.167969 C 255.523438 23.160156 258.277344 24.222656 261.003906 25.351562 C 263.734375 26.480469 266.429688 27.675781 269.097656 28.941406 C 271.765625 30.203125 274.402344 31.527344 277.007812 32.917969 C 279.609375 34.3125 282.175781 35.765625 284.707031 37.285156 C 287.242188 38.800781 289.734375 40.378906 292.1875 42.019531 C 294.640625 43.660156 297.054688 45.359375 299.425781 47.117188 C 301.796875 48.875 304.121094 50.691406 306.402344 52.5625 C 308.6875 54.4375 310.921875 56.363281 313.109375 58.34375 C 315.292969 60.328125 317.433594 62.363281 319.519531 64.449219 C 321.605469 66.535156 323.640625 68.675781 325.625 70.859375 C 327.605469 73.046875 329.53125 75.28125 331.40625 77.5625 C 333.277344 79.847656 335.09375 82.171875 336.851562 84.542969 C 338.609375 86.914062 340.308594 89.328125 341.949219 91.78125 C 343.589844 94.234375 345.167969 96.726562 346.683594 99.261719 C 348.203125 101.792969 349.65625 104.359375 351.046875 106.960938 C 352.441406 109.566406 353.765625 112.203125 355.027344 114.871094 C 356.289062 117.539062 357.488281 120.234375 358.617188 122.964844 C 359.746094 125.691406 360.808594 128.441406 361.800781 131.222656 C 362.796875 134 363.722656 136.804688 364.578125 139.628906 C 365.4375 142.453125 366.222656 145.296875 366.941406 148.160156 C 367.65625 151.023438 368.304688 153.902344 368.878906 156.796875 C 369.457031 159.691406 369.960938 162.601562 370.394531 165.519531 C 370.828125 168.441406 371.1875 171.367188 371.476562 174.304688 C 371.765625 177.242188 371.984375 180.1875 372.128906 183.132812 C 372.273438 186.082031 372.34375 189.03125 372.34375 191.984375 Z M 372.34375 191.984375 " fill-opacity="1" fill-rule="nonzero"/></g><g clip-path="url(#e2002a5d31)"><g clip-path="url(#e3ead0c622)"><path fill="#fbc6a2" d="M 230.015625 261.285156 C 226.582031 264.234375 212.894531 275.339844 192.183594 275.371094 C 171.371094 275.398438 157.605469 264.222656 154.183594 261.285156 C 155.710938 243.242188 157.242188 225.179688 158.769531 207.132812 C 159.296875 200.792969 159.84375 194.453125 160.371094 188.117188 L 223.828125 188.117188 L 227.503906 231.605469 Z M 230.015625 261.285156 " fill-opacity="1" fill-rule="nonzero"/></g></g><g clip-path="url(#f45a4f3237)"><g clip-path="url(#fd2fc7e688)"><path fill="#c2686b" d="M 227.503906 231.609375 C 196.8125 230.1875 174.546875 219.597656 158.769531 207.132812 C 159.296875 200.796875 159.84375 194.457031 160.371094 188.117188 L 223.828125 188.117188 Z M 227.503906 231.609375 " fill-opacity="1" fill-rule="nonzero"/></g></g><g clip-path="url(#829970c675)"><g clip-path="url(#f5aaeec0ea)"><path fill="#fbc6a2" d="M 219.050781 205.359375 L 218.382812 205.929688 C 202.472656 219.574219 178.902344 219.277344 163.335938 205.238281 C 145.996094 189.59375 136.097656 167.332031 136.097656 143.976562 L 136.097656 121.472656 C 136.097656 90.609375 161.117188 65.59375 191.976562 65.59375 C 222.835938 65.59375 247.855469 90.609375 247.855469 121.472656 L 247.855469 142.726562 C 247.855469 166.804688 237.332031 189.683594 219.054688 205.359375 Z M 219.050781 205.359375 " fill-opacity="1" fill-rule="nonzero"/></g></g><g clip-path="url(#723d8459d6)"><g clip-path="url(#9a1432de21)"><path fill="#fbc6a2" d="M 244.421875 193.855469 C 244.644531 193.855469 244.644531 193.507812 244.421875 193.507812 C 244.199219 193.507812 244.199219 193.855469 244.421875 193.855469 Z M 244.421875 193.855469 " fill-opacity="1" fill-rule="nonzero"/></g></g><g clip-path="url(#013eea25ce)"><g clip-path="url(#2b29b25cdc)"><path fill="#000000" d="M 95.722656 76.425781 C 95.945312 76.425781 95.945312 76.078125 95.722656 76.078125 C 95.5 76.078125 95.5 76.425781 95.722656 76.425781 Z M 95.722656 76.425781 " fill-opacity="1" fill-rule="nonzero"/></g></g><g clip-path="url(#f7b616c4e8)"><g clip-path="url(#26962eab8c)"><path fill="#000000" d="M 258.613281 66.914062 C 261.199219 67.195312 263.554688 66.070312 264.941406 64.804688 C 269.476562 73.234375 267.90625 85.097656 265.9375 94.46875 C 262.617188 110.289062 258.527344 123.875 247.429688 135.628906 L 247.328125 128.695312 C 247.359375 124.902344 247.394531 121.109375 247.425781 117.316406 C 247.441406 115.652344 247.1875 113.578125 245.617188 113.027344 C 244.3125 112.566406 242.976562 113.503906 241.785156 114.210938 C 236.914062 117.101562 230.78125 116.5625 225.226562 115.433594 C 207.96875 111.933594 191.726562 103.558594 178.859375 91.535156 C 176.367188 89.203125 173.914062 86.679688 170.773438 85.335938 C 164.699219 82.742188 157.265625 85.410156 152.976562 90.433594 C 148.691406 95.460938 147.125 102.324219 147.082031 108.929688 C 147.058594 112.238281 147.347656 115.71875 145.890625 118.691406 C 144.917969 120.675781 143.257812 122.226562 141.566406 123.652344 C 139.535156 125.367188 133.808594 132.792969 131.601562 134.273438 C 138.011719 129.964844 128.578125 111.042969 127.933594 103.34375 C 127.570312 98.984375 127.207031 94.585938 127.742188 90.242188 C 129.097656 79.25 136.164062 69.613281 144.839844 62.722656 C 150.289062 58.394531 156.75 54.859375 163.707031 54.679688 C 169.164062 54.539062 174.917969 56.417969 179.90625 54.203125 C 181.972656 53.28125 183.683594 51.738281 185.476562 50.359375 C 198.761719 40.179688 218.644531 39.667969 232.4375 49.148438 C 237.367188 52.382812 240.917969 55.496094 243.308594 57.8125 C 245.832031 60.261719 247.714844 62.46875 251.261719 64.382812 C 254.101562 65.914062 256.757812 66.585938 258.613281 66.914062 Z M 258.613281 66.914062 " fill-opacity="1" fill-rule="nonzero"/></g></g><g clip-path="url(#32391a99d6)"><g clip-path="url(#a6592ef8df)"><path fill="#fbc6a2" d="M 139.359375 158.464844 L 144.238281 157.125 L 138.75 132.828125 C 137.496094 127.285156 132.40625 123.90625 127.378906 125.289062 C 122.945312 126.511719 119.96875 131.074219 120.296875 136.109375 C 120.425781 138.054688 120.660156 140.128906 121.039062 142.308594 C 121.375 144.226562 121.792969 146.039062 122.261719 147.738281 C 124.484375 155.769531 131.980469 160.496094 139.359375 158.464844 Z M 139.359375 158.464844 " fill-opacity="1" fill-rule="nonzero"/></g></g><g clip-path="url(#966bb44264)"><g clip-path="url(#306dc381c8)"><path fill="#fbc6a2" d="M 244.847656 158.464844 L 239.96875 157.125 L 245.457031 132.828125 C 246.710938 127.285156 251.800781 123.90625 256.824219 125.289062 C 261.257812 126.511719 264.238281 131.074219 263.90625 136.109375 C 263.78125 138.054688 263.546875 140.128906 263.164062 142.308594 C 262.828125 144.226562 262.414062 146.039062 261.941406 147.738281 C 259.722656 155.769531 252.226562 160.496094 244.847656 158.464844 Z M 244.847656 158.464844 " fill-opacity="1" fill-rule="nonzero"/></g></g><g clip-path="url(#c71a8a325b)"><g clip-path="url(#684e17a05e)"><path fill="#fbc6a2" d="M 155.195312 239.40625 C 136.035156 243.839844 113.101562 250.820312 88.324219 262.089844 C 69.351562 270.71875 53.128906 280.117188 39.652344 289.023438 L 39.652344 408.769531 L 344.042969 408.769531 L 344.042969 289.023438 C 330.566406 280.117188 314.339844 270.71875 295.367188 262.089844 C 270.589844 250.820312 247.660156 243.839844 228.496094 239.40625 C 224.878906 242.300781 209.773438 253.71875 188.097656 252.328125 C 170.984375 251.234375 159.359375 242.765625 155.195312 239.40625 Z M 155.195312 239.40625 " fill-opacity="1" fill-rule="nonzero"/><path fill="#243d6b" d="M 155.195312 239.40625 C 136.035156 243.839844 113.101562 250.820312 88.324219 262.089844 C 69.351562 270.71875 53.128906 280.117188 39.652344 289.023438 L 39.652344 408.769531 L 344.042969 408.769531 L 344.042969 289.023438 C 330.566406 280.117188 314.339844 270.71875 295.367188 262.089844 C 270.589844 250.820312 247.660156 243.839844 228.496094 239.40625 C 227.828125 246.304688 225.9375 256.691406 220.234375 267.925781 C 211.460938 285.203125 198.5625 294.863281 191.980469 299.125 C 185.871094 295.515625 172.957031 286.75 164.003906 270.175781 C 157.28125 257.734375 155.632812 246.160156 155.195312 239.40625 Z M 155.195312 239.40625 " fill-opacity="1" fill-rule="nonzero"/></g></g><g clip-path="url(#35b70e1d00)"><g clip-path="url(#328db20fc3)"><path fill="#e2e0e0" d="M 250.296875 252.96875 C 248.382812 273.058594 246.480469 293.148438 244.5625 313.222656 L 211.226562 289.382812 L 193.75 298.238281 L 191.984375 299.128906 C 192.382812 298.648438 192.777344 298.171875 193.1875 297.675781 C 194.449219 296.144531 195.734375 294.53125 197.019531 292.859375 C 201.6875 286.824219 206.519531 279.941406 211.226562 272.195312 C 218.820312 259.660156 224.28125 247.835938 228.238281 237.640625 C 232.164062 237.980469 239.035156 239.171875 245.605469 243.960938 C 246.136719 244.34375 246.628906 244.726562 247.097656 245.125 C 248.640625 246.382812 249.667969 248.121094 250.09375 250.011719 C 250.324219 250.96875 250.394531 251.96875 250.296875 252.96875 Z M 250.296875 252.96875 " fill-opacity="1" fill-rule="nonzero"/></g></g><g clip-path="url(#9c892212a7)"><g clip-path="url(#9a69828b43)"><path fill="#e2e0e0" d="M 191.984375 299.128906 L 189.945312 298.101562 L 172.742188 289.382812 L 139.40625 313.222656 C 137.488281 293.148438 135.585938 273.058594 133.671875 252.96875 C 133.601562 252.308594 133.617188 251.667969 133.699219 251.023438 C 133.945312 248.738281 135.050781 246.601562 136.871094 245.125 C 137.339844 244.726562 137.832031 244.34375 138.363281 243.960938 C 144.933594 239.171875 151.804688 237.980469 155.730469 237.640625 C 159.6875 247.835938 165.148438 259.660156 172.742188 272.195312 C 177.503906 280.050781 182.40625 287.003906 187.125 293.09375 C 188.359375 294.679688 189.574219 296.214844 190.78125 297.675781 C 191.191406 298.171875 191.585938 298.648438 191.984375 299.128906 Z M 191.984375 299.128906 " fill-opacity="1" fill-rule="nonzero"/></g></g><g clip-path="url(#210b559e32)"><g clip-path="url(#c53ed3a87d)"><path fill="#ffffff" d="M 250.09375 250.011719 C 248.203125 269.871094 246.316406 289.742188 244.425781 309.585938 L 211.089844 285.730469 L 197.019531 292.863281 C 201.6875 286.828125 206.519531 279.941406 211.226562 272.195312 C 218.820312 259.660156 224.28125 247.835938 228.238281 237.640625 C 232.164062 237.984375 239.035156 239.171875 245.605469 243.964844 C 246.136719 244.347656 246.628906 244.730469 247.097656 245.125 C 248.640625 246.386719 249.667969 248.125 250.09375 250.011719 Z M 250.09375 250.011719 " fill-opacity="1" fill-rule="nonzero"/></g></g><g clip-path="url(#1d54988afd)"><g clip-path="url(#ea4cbb53da)"><path fill="#ffffff" d="M 187.125 293.09375 L 172.605469 285.730469 L 139.269531 309.585938 C 137.40625 290.070312 135.558594 270.554688 133.699219 251.023438 C 133.945312 248.738281 135.050781 246.605469 136.871094 245.125 C 137.339844 244.730469 137.832031 244.347656 138.363281 243.964844 C 144.933594 239.171875 151.804688 237.984375 155.730469 237.640625 C 159.6875 247.835938 165.148438 259.660156 172.742188 272.195312 C 177.503906 280.050781 182.40625 287.003906 187.125 293.09375 Z M 187.125 293.09375 " fill-opacity="1" fill-rule="nonzero"/></g></g><g clip-path="url(#13a2c7e495)"><g clip-path="url(#d08d3093c6)"><path fill="#e2e0e0" d="M 193.75 297.675781 L 193.75 388.261719 L 189.945312 388.261719 L 189.945312 297.675781 L 190.78125 297.675781 C 191.191406 298.171875 191.585938 298.648438 191.984375 299.128906 C 192.382812 298.648438 192.777344 298.171875 193.1875 297.675781 Z M 193.75 297.675781 " fill-opacity="1" fill-rule="nonzero"/></g></g></svg>