<svg xmlns="http://www.w3.org/2000/svg" xmlns:xlink="http://www.w3.org/1999/xlink" width="512" zoomAndPan="magnify" viewBox="0 0 384 383.999986" height="512" preserveAspectRatio="xMidYMid meet" version="1.0"><defs><clipPath id="489a5afb1a"><path d="M 13.492188 73.066406 L 370.488281 73.066406 L 370.488281 310.816406 L 13.492188 310.816406 Z M 13.492188 73.066406 " clip-rule="nonzero"/></clipPath></defs><path fill="#6fae3d" d="M 118.847656 194.453125 C 136.441406 194.453125 150.75 175.78125 150.75 158.191406 C 150.75 140.601562 136.441406 126.289062 118.847656 126.289062 C 101.257812 126.289062 86.945312 140.601562 86.945312 158.191406 C 86.949219 175.78125 101.257812 194.453125 118.847656 194.453125 Z M 118.847656 194.453125 " fill-opacity="1" fill-rule="nonzero"/><path fill="#6fae3d" d="M 142.796875 194.78125 C 136.609375 199.496094 128.890625 202.300781 120.527344 202.300781 L 117.167969 202.300781 C 108.804688 202.300781 101.085938 199.496094 94.894531 194.78125 C 74.691406 198.046875 59.261719 215.5625 59.261719 236.6875 C 59.261719 248.292969 85.9375 257.703125 118.847656 257.703125 C 151.753906 257.703125 178.433594 248.292969 178.433594 236.6875 C 178.433594 215.5625 163.003906 198.046875 142.796875 194.78125 Z M 142.796875 194.78125 " fill-opacity="1" fill-rule="nonzero"/><path fill="#6fae3d" d="M 223.898438 187.410156 L 260.5625 187.410156 L 260.5625 150.75 L 223.898438 150.75 Z M 233.0625 159.914062 L 251.394531 159.914062 L 251.394531 178.242188 L 233.0625 178.242188 Z M 233.0625 159.914062 " fill-opacity="1" fill-rule="nonzero"/><path fill="#6fae3d" d="M 237.351562 164.203125 L 247.105469 164.203125 L 247.105469 173.957031 L 237.351562 173.957031 Z M 237.351562 164.203125 " fill-opacity="1" fill-rule="nonzero"/><path fill="#6fae3d" d="M 223.898438 233.246094 L 260.5625 233.246094 L 260.5625 196.578125 L 223.898438 196.578125 Z M 233.0625 205.746094 L 251.394531 205.746094 L 251.394531 224.082031 L 233.0625 224.082031 Z M 233.0625 205.746094 " fill-opacity="1" fill-rule="nonzero"/><path fill="#6fae3d" d="M 237.351562 210.035156 L 247.105469 210.035156 L 247.105469 219.792969 L 237.351562 219.792969 Z M 237.351562 210.035156 " fill-opacity="1" fill-rule="nonzero"/><path fill="#6fae3d" d="M 306.394531 150.75 L 269.730469 150.75 L 269.730469 187.410156 L 306.394531 187.410156 Z M 297.230469 178.242188 L 278.898438 178.242188 L 278.898438 159.914062 L 297.230469 159.914062 Z M 297.230469 178.242188 " fill-opacity="1" fill-rule="nonzero"/><path fill="#6fae3d" d="M 283.183594 164.203125 L 292.941406 164.203125 L 292.941406 173.957031 L 283.183594 173.957031 Z M 283.183594 164.203125 " fill-opacity="1" fill-rule="nonzero"/><path fill="#6fae3d" d="M 269.730469 196.578125 L 281.953125 196.578125 L 281.953125 208.796875 L 269.730469 208.796875 Z M 269.730469 196.578125 " fill-opacity="1" fill-rule="nonzero"/><path fill="#6fae3d" d="M 281.953125 208.796875 L 294.171875 208.796875 L 294.171875 221.023438 L 281.953125 221.023438 Z M 281.953125 208.796875 " fill-opacity="1" fill-rule="nonzero"/><path fill="#6fae3d" d="M 294.171875 221.023438 L 306.394531 221.023438 L 306.394531 233.246094 L 294.171875 233.246094 Z M 294.171875 221.023438 " fill-opacity="1" fill-rule="nonzero"/><path fill="#6fae3d" d="M 269.730469 221.023438 L 281.953125 221.023438 L 281.953125 233.246094 L 269.730469 233.246094 Z M 269.730469 221.023438 " fill-opacity="1" fill-rule="nonzero"/><path fill="#6fae3d" d="M 294.171875 196.578125 L 306.394531 196.578125 L 306.394531 208.796875 L 294.171875 208.796875 Z M 294.171875 196.578125 " fill-opacity="1" fill-rule="nonzero"/><path fill="#6fae3d" d="M 214.726562 141.578125 L 227.628906 141.578125 L 227.628906 132.410156 L 205.558594 132.410156 L 205.558594 154.476562 L 214.726562 154.476562 Z M 214.726562 141.578125 " fill-opacity="1" fill-rule="nonzero"/><path fill="#6fae3d" d="M 302.664062 141.578125 L 315.5625 141.578125 L 315.5625 154.476562 L 324.730469 154.476562 L 324.730469 132.410156 L 302.664062 132.410156 Z M 302.664062 141.578125 " fill-opacity="1" fill-rule="nonzero"/><path fill="#6fae3d" d="M 214.726562 229.515625 L 205.558594 229.515625 L 205.558594 251.582031 L 227.628906 251.582031 L 227.628906 242.410156 L 214.726562 242.410156 Z M 214.726562 229.515625 " fill-opacity="1" fill-rule="nonzero"/><path fill="#6fae3d" d="M 315.5625 242.410156 L 302.664062 242.410156 L 302.664062 251.582031 L 324.730469 251.582031 L 324.730469 229.511719 L 315.5625 229.511719 Z M 315.5625 242.410156 " fill-opacity="1" fill-rule="nonzero"/><g clip-path="url(#489a5afb1a)"><path fill="#6fae3d" d="M 332.101562 73.078125 L 51.890625 73.078125 C 30.714844 73.078125 13.492188 90.304688 13.492188 111.476562 L 13.492188 272.515625 C 13.492188 293.6875 30.714844 310.914062 51.890625 310.914062 L 332.101562 310.914062 C 353.277344 310.914062 370.503906 293.6875 370.503906 272.515625 L 370.503906 111.476562 C 370.5 90.304688 353.277344 73.078125 332.101562 73.078125 Z M 357.261719 272.515625 C 357.261719 286.386719 345.976562 297.671875 332.101562 297.671875 L 51.890625 297.671875 C 38.019531 297.671875 26.730469 286.386719 26.730469 272.515625 L 26.730469 111.476562 C 26.730469 97.605469 38.019531 86.316406 51.890625 86.316406 L 332.101562 86.316406 C 345.976562 86.316406 357.261719 97.605469 357.261719 111.476562 Z M 357.261719 272.515625 " fill-opacity="1" fill-rule="nonzero"/></g></svg>